<?xml version="1.0" encoding="utf-8"?>
<!-- Generator: Adobe Illustrator 20.0.0, SVG Export Plug-In . SVG Version: 6.00 Build 0)  -->
<svg version="1.1" xmlns="http://www.w3.org/2000/svg" xmlns:xlink="http://www.w3.org/1999/xlink" x="0px" y="0px"
	 viewBox="0 0 1440 1440" style="enable-background:new 0 0 1440 1440;" xml:space="preserve">
<style type="text/css">
	.st0{display:none;}
	.st1{display:inline;}
	.st2{fill:#FFFFFF;}
	.st3{display:inline;clip-path:url(#SVGID_2_);}
	.st4{opacity:0.31;}
	.st5{fill:#59595C;}
	.st6{fill:#C05F68;}
	.st7{display:inline;fill:#59595C;}
	.st8{fill:#BF5F68;}
	.st9{fill:#8CC23F;stroke:#59595C;stroke-width:4;stroke-linecap:round;stroke-linejoin:round;stroke-miterlimit:10;}
	.st10{fill:none;stroke:#B0B7C0;stroke-linecap:round;stroke-linejoin:round;}
	.st11{fill:none;stroke:#B0B7C0;stroke-linecap:round;stroke-linejoin:round;stroke-dasharray:3.0008,6.0015;}
	.st12{fill:#FFFFFF;stroke:#B0B7C0;stroke-width:3;stroke-linecap:round;stroke-linejoin:round;stroke-miterlimit:10;}
	.st13{fill:none;stroke:#59595C;stroke-width:4;stroke-linecap:round;stroke-linejoin:round;stroke-miterlimit:10;}
	.st14{fill:#8CC03F;}
	.st15{fill:#8CC23F;}
	.st16{display:inline;fill:#6EC5AB;}
	.st17{display:inline;fill:#59595C;stroke:#59595C;stroke-width:3;stroke-miterlimit:10;}
	.st18{display:inline;fill:#6C96A1;}
	.st19{display:inline;fill:#C05F68;}
</style>
<g id="Toolbox" class="st0">
</g>
<g id="Industries" class="st0">
</g>
<g id="Footer" class="st0">
</g>
<g id="RBM_World" class="st0">
</g>
<g id="Editions" class="st0">
</g>
<g id="_x39__Keys">
	<path class="st12" d="M377.5,149.8c-6.4,0-12.6,1-18.4,2.7c-10-47.6-52.3-83.4-103-83.4c-37.9,0-71,20-89.6,50
		c-5.1-1-10.3-1.6-15.7-1.6c-44.7,0-81,36.1-81,80.7c0,44.6,36.2,80.6,81,80.6c18.4,0,35.3-6.1,48.8-16.4
		c16.3,10.4,35.6,16.4,56.4,16.4c26.6,0,50.9-9.9,69.5-26.2c11.8,15.9,30.7,26.2,52,26.2c35.8,0,64.8-28.9,64.8-64.5
		C442.2,178.7,413.2,149.8,377.5,149.8z"/>
	<g>
		<g>
			<g>
				<path class="st8" d="M1005.7,645.7c-0.8,0-1.6-0.3-2.1-0.9L945.6,587l-57.9,57.9c-0.9,0.9-2.2,1.1-3.3,0.7
					c-1.1-0.5-1.9-1.6-1.9-2.8V409c0-1.7,1.4-3,3-3s3,1.4,3,3v226.4l54.9-54.9c1.1-1.1,3.1-1.1,4.3,0l54.9,54.9V392.9
					c0-1.7,1.4-3,3-3s3,1.4,3,3v249.8c0,1.2-0.7,2.3-1.9,2.8C1006.4,645.7,1006.1,645.7,1005.7,645.7z"/>
			</g>
			<g>
				<path class="st5" d="M741.6,999.1c-1.7,0-3-1.4-3-3c0-27.1-33.3-52.7-93.9-72c-62.3-19.9-147.3-30.9-239.2-30.9
					c-1.7,0-3-1.4-3-3V390.6c0-1.7,1.4-3,3-3c92.5,0,178.2,11.1,241.1,31.2c52.4,16.8,85.3,38.6,95,62.7c9.7-24.1,42.6-45.9,95-62.7
					c62.9-20.1,148.5-31.2,241.1-31.2c1.7,0,3,1.4,3,3v499.5c0,1.7-1.4,3-3,3c-91.9,0-176.9,11-239.2,30.9
					c-60.5,19.3-93.8,44.9-93.8,72C744.6,997.7,743.3,999.1,741.6,999.1z M408.5,887.1c91.4,0.2,175.8,11.3,238,31.2
					c52.4,16.8,85.3,38.6,95,62.7c9.7-24.1,42.6-45.9,95-62.7c62.2-19.9,146.7-30.9,238-31.2V393.7c-90.8,0.2-174.6,11.2-236.2,30.9
					c-60.5,19.3-93.8,44.9-93.8,72c0,1.7-1.4,3-3,3s-3-1.4-3-3c0-27.1-33.3-52.7-93.9-72c-61.6-19.7-145.4-30.6-236.2-30.9V887.1z"
					/>
			</g>
			<g>
				<path class="st5" d="M741.6,999.1c-1.7,0-3-1.4-3-3V496.6c0-1.7,1.4-3,3-3s3,1.4,3,3V996C744.6,997.7,743.3,999.1,741.6,999.1z"
					/>
			</g>
			<g>
				<path class="st5" d="M665.9,567.4c-0.4,0-0.7-0.1-1.1-0.2c-49.4-18.9-119-32.1-195.9-37.3c-1.7-0.1-2.9-1.6-2.8-3.2
					c0.1-1.7,1.6-2.9,3.2-2.8c77.5,5.2,147.7,18.6,197.6,37.7c1.6,0.6,2.3,2.3,1.7,3.9C668.3,566.7,667.1,567.4,665.9,567.4z"/>
			</g>
			<g>
				<path class="st5" d="M665.9,658.2c-0.4,0-0.7-0.1-1.1-0.2c-49.4-18.9-118.9-32.1-195.9-37.3c-1.7-0.1-2.9-1.6-2.8-3.2
					c0.1-1.7,1.6-2.9,3.2-2.8c77.5,5.2,147.7,18.6,197.6,37.7c1.6,0.6,2.3,2.3,1.7,3.9C668.3,657.5,667.1,658.2,665.9,658.2z"/>
			</g>
			<g>
				<path class="st5" d="M665.9,749c-0.4,0-0.7-0.1-1.1-0.2c-49.4-18.9-119-32.2-195.9-37.3c-1.7-0.1-2.9-1.6-2.8-3.2
					c0.1-1.7,1.6-2.9,3.2-2.8c77.5,5.2,147.7,18.6,197.6,37.7c1.6,0.6,2.3,2.3,1.7,3.9C668.3,748.3,667.1,749,665.9,749z"/>
			</g>
			<g>
				<path class="st5" d="M665.9,839.8c-0.4,0-0.7-0.1-1.1-0.2c-49.4-18.9-118.9-32.1-195.9-37.3c-1.7-0.1-2.9-1.6-2.8-3.2
					c0.1-1.7,1.6-2.9,3.2-2.8c77.5,5.2,147.7,18.6,197.6,37.7c1.6,0.6,2.3,2.3,1.7,3.9C668.3,839.1,667.1,839.8,665.9,839.8z"/>
			</g>
			<g>
				<path class="st5" d="M817.3,749c-1.2,0-2.4-0.7-2.8-1.9c-0.6-1.6,0.2-3.3,1.7-3.9c50-19.1,120.2-32.5,197.6-37.7
					c1.7-0.1,3.1,1.1,3.2,2.8c0.1,1.7-1.1,3.1-2.8,3.2c-76.8,5.2-146.4,18.4-195.9,37.3C818,749,817.6,749,817.3,749z"/>
			</g>
			<g>
				<path class="st5" d="M817.3,839.8c-1.2,0-2.4-0.7-2.8-1.9c-0.6-1.6,0.2-3.3,1.7-3.9c50-19.1,120.1-32.5,197.6-37.7
					c1.7-0.1,3.1,1.1,3.2,2.8c0.1,1.7-1.1,3.1-2.8,3.2c-76.9,5.2-146.5,18.5-195.9,37.3C818,839.8,817.6,839.8,817.3,839.8z"/>
			</g>
		</g>
		<g>
			<g>
				<rect x="198.3" y="700.8" class="st2" width="396.6" height="396.6"/>
				<path class="st5" d="M594.9,1100.5H198.3c-1.7,0-3-1.4-3-3V700.8c0-1.7,1.4-3,3-3h396.6c1.7,0,3,1.4,3,3v396.6
					C597.9,1099.1,596.5,1100.5,594.9,1100.5z M201.3,1094.4h390.6V703.9H201.3V1094.4z"/>
			</g>
			<g>
				<path class="st5" d="M396.6,1100.5c-1.7,0-3-1.4-3-3v-41c0-1.7,1.4-3,3-3s3,1.4,3,3v41C399.6,1099.1,398.2,1100.5,396.6,1100.5z
					"/>
			</g>
			<g>
				<path class="st5" d="M287.1,1100.5c-1.7,0-3-1.4-3-3v-41c0-1.7,1.4-3,3-3s3,1.4,3,3v41C290.2,1099.1,288.8,1100.5,287.1,1100.5z
					"/>
			</g>
			<g>
				<path class="st5" d="M396.6,1018.4c-1.7,0-3-1.4-3-3V988c0-1.7,1.4-3,3-3s3,1.4,3,3v27.4
					C399.6,1017.1,398.2,1018.4,396.6,1018.4z"/>
			</g>
			<g>
				<path class="st5" d="M396.6,950c-1.7,0-3-1.4-3-3V782.9c0-1.7,1.4-3,3-3s3,1.4,3,3V947C399.6,948.7,398.2,950,396.6,950z"/>
			</g>
			<g>
				<path class="st5" d="M287.1,1018.4c-1.7,0-3-1.4-3-3V851.3c0-1.7,1.4-3,3-3s3,1.4,3,3v164.1
					C290.2,1017.1,288.8,1018.4,287.1,1018.4z"/>
			</g>
			<g>
				<path class="st5" d="M287.1,813.3c-1.7,0-3-1.4-3-3v-27.4c0-1.7,1.4-3,3-3s3,1.4,3,3v27.4C290.2,811.9,288.8,813.3,287.1,813.3z
					"/>
			</g>
			<g>
				<path class="st5" d="M287.1,744.9c-1.7,0-3-1.4-3-3v-41c0-1.7,1.4-3,3-3s3,1.4,3,3v41C290.2,743.5,288.8,744.9,287.1,744.9z"/>
			</g>
			<g>
				<path class="st5" d="M396.6,744.9c-1.7,0-3-1.4-3-3v-41c0-1.7,1.4-3,3-3s3,1.4,3,3v41C399.6,743.5,398.2,744.9,396.6,744.9z"/>
			</g>
			<g>
				<path class="st5" d="M506,881.7c-1.7,0-3-1.4-3-3v-27.4c0-1.7,1.4-3,3-3s3,1.4,3,3v27.4C509,880.3,507.6,881.7,506,881.7z"/>
			</g>
			<g>
				<path class="st5" d="M506,1100.5c-1.7,0-3-1.4-3-3V919.7c0-1.7,1.4-3,3-3s3,1.4,3,3v177.8C509,1099.1,507.6,1100.5,506,1100.5z"
					/>
			</g>
			<g>
				<path class="st5" d="M506,813.3c-1.7,0-3-1.4-3-3v-27.4c0-1.7,1.4-3,3-3s3,1.4,3,3v27.4C509,811.9,507.6,813.3,506,813.3z"/>
			</g>
			<g>
				<path class="st8" d="M307.7,1059.4h-41c-9.2,0-16.7-7.5-16.7-16.7v-13.7c0-9.2,7.5-16.7,16.7-16.7h41c9.2,0,16.7,7.5,16.7,16.7
					v13.7C324.4,1052,316.9,1059.4,307.7,1059.4z M266.6,1018.4c-5.9,0-10.7,4.8-10.7,10.7v13.7c0,5.9,4.8,10.6,10.7,10.6h41
					c5.9,0,10.7-4.8,10.7-10.6v-13.7c0-5.9-4.8-10.7-10.7-10.7H266.6z"/>
			</g>
			<g>
				<path class="st8" d="M307.7,854.3h-41c-9.2,0-16.7-7.5-16.7-16.7v-13.7c0-9.2,7.5-16.7,16.7-16.7h41c9.2,0,16.7,7.5,16.7,16.7
					v13.7C324.4,846.8,316.9,854.3,307.7,854.3z M266.6,813.3c-5.9,0-10.7,4.8-10.7,10.7v13.7c0,5.9,4.8,10.7,10.7,10.7h41
					c5.9,0,10.7-4.8,10.7-10.7v-13.7c0-5.9-4.8-10.7-10.7-10.7H266.6z"/>
			</g>
			<g>
				<path class="st8" d="M526.5,854.3h-41c-9.2,0-16.7-7.5-16.7-16.7v-13.7c0-9.2,7.5-16.7,16.7-16.7h41c9.2,0,16.7,7.5,16.7,16.7
					v13.7C543.2,846.8,535.7,854.3,526.5,854.3z M485.4,813.3c-5.9,0-10.7,4.8-10.7,10.7v13.7c0,5.9,4.8,10.7,10.7,10.7h41
					c5.9,0,10.7-4.8,10.7-10.7v-13.7c0-5.9-4.8-10.7-10.7-10.7H485.4z"/>
			</g>
			<g>
				<path class="st8" d="M526.5,922.7h-41c-9.2,0-16.7-7.5-16.7-16.7v-13.7c0-9.2,7.5-16.7,16.7-16.7h41c9.2,0,16.7,7.5,16.7,16.7
					V906C543.2,915.2,535.7,922.7,526.5,922.7z M485.4,881.7c-5.9,0-10.7,4.8-10.7,10.7V906c0,5.9,4.8,10.7,10.7,10.7h41
					c5.9,0,10.7-4.8,10.7-10.7v-13.7c0-5.9-4.8-10.7-10.7-10.7H485.4z"/>
			</g>
			<g>
				<path class="st8" d="M307.7,785.9h-41c-9.2,0-16.7-7.5-16.7-16.7v-13.7c0-9.2,7.5-16.7,16.7-16.7h41c9.2,0,16.7,7.5,16.7,16.7
					v13.7C324.4,778.4,316.9,785.9,307.7,785.9z M266.6,744.9c-5.9,0-10.7,4.8-10.7,10.6v13.7c0,5.9,4.8,10.7,10.7,10.7h41
					c5.9,0,10.7-4.8,10.7-10.7v-13.7c0-5.9-4.8-10.6-10.7-10.6H266.6z"/>
			</g>
			<g>
				<path class="st8" d="M417.1,785.9h-41c-9.2,0-16.7-7.5-16.7-16.7v-13.7c0-9.2,7.5-16.7,16.7-16.7h41c9.2,0,16.7,7.5,16.7,16.7
					v13.7C433.8,778.4,426.3,785.9,417.1,785.9z M376,744.9c-5.9,0-10.7,4.8-10.7,10.6v13.7c0,5.9,4.8,10.7,10.7,10.7h41
					c5.9,0,10.7-4.8,10.7-10.7v-13.7c0-5.9-4.8-10.6-10.7-10.6H376z"/>
			</g>
			<g>
				<path class="st8" d="M417.1,991.1h-41c-9.2,0-16.7-7.5-16.7-16.7v-13.7c0-9.2,7.5-16.7,16.7-16.7h41c9.2,0,16.7,7.5,16.7,16.7
					v13.7C433.8,983.6,426.3,991.1,417.1,991.1z M376,950c-5.9,0-10.7,4.8-10.7,10.7v13.7c0,5.9,4.8,10.7,10.7,10.7h41
					c5.9,0,10.7-4.8,10.7-10.7v-13.7c0-5.9-4.8-10.7-10.7-10.7H376z"/>
			</g>
			<g>
				<path class="st8" d="M417.1,1059.4h-41c-9.2,0-16.7-7.5-16.7-16.7v-13.7c0-9.2,7.5-16.7,16.7-16.7h41c9.2,0,16.7,7.5,16.7,16.7
					v13.7C433.8,1052,426.3,1059.4,417.1,1059.4z M376,1018.4c-5.9,0-10.7,4.8-10.7,10.7v13.7c0,5.9,4.8,10.6,10.7,10.6h41
					c5.9,0,10.7-4.8,10.7-10.6v-13.7c0-5.9-4.8-10.7-10.7-10.7H376z"/>
			</g>
			<g>
				<path class="st5" d="M506,744.9c-1.7,0-3-1.4-3-3v-41c0-1.7,1.4-3,3-3s3,1.4,3,3v41C509,743.5,507.6,744.9,506,744.9z"/>
			</g>
			<g>
				<path class="st8" d="M526.5,785.9h-41c-9.2,0-16.7-7.5-16.7-16.7v-13.7c0-9.2,7.5-16.7,16.7-16.7h41c9.2,0,16.7,7.5,16.7,16.7
					v13.7C543.2,778.4,535.7,785.9,526.5,785.9z M485.4,744.9c-5.9,0-10.7,4.8-10.7,10.6v13.7c0,5.9,4.8,10.7,10.7,10.7h41
					c5.9,0,10.7-4.8,10.7-10.7v-13.7c0-5.9-4.8-10.6-10.7-10.6H485.4z"/>
			</g>
		</g>
		<g>
			<g>
				<rect x="885.6" y="692.1" class="st2" width="356.1" height="395.2"/>
				<path class="st5" d="M1241.7,1090.3H885.6c-1.7,0-3-1.4-3-3V692.1c0-1.7,1.4-3,3-3h356.1c1.7,0,3,1.4,3,3v395.2
					C1244.8,1089,1243.4,1090.3,1241.7,1090.3z M888.7,1084.3h350.1V695.1H888.7V1084.3z"/>
			</g>
			<g>
				<g>
					<path class="st5" d="M1210.9,1039.9H916.5c-1.7,0-3-1.4-3-3s1.4-3,3-3h294.4c1.7,0,3,1.4,3,3S1212.5,1039.9,1210.9,1039.9z"/>
				</g>
				<g>
					<path class="st5" d="M977.4,1039.9h-40.6c-1.7,0-3-1.4-3-3V976c0-1.7,1.4-3,3-3h40.6c1.7,0,3,1.4,3,3v60.9
						C980.4,1038.5,979.1,1039.9,977.4,1039.9z M939.8,1033.8h34.6V979h-34.6V1033.8z"/>
				</g>
				<g>
					<path class="st5" d="M1048.5,1039.9h-40.6c-1.7,0-3-1.4-3-3v-132c0-1.7,1.4-3,3-3h40.6c1.7,0,3,1.4,3,3v132
						C1051.5,1038.5,1050.1,1039.9,1048.5,1039.9z M1010.9,1033.8h34.6V907.9h-34.6V1033.8z"/>
				</g>
				<g>
					<path class="st5" d="M1119.5,1039.9h-40.6c-1.7,0-3-1.4-3-3V935.4c0-1.7,1.4-3,3-3h40.6c1.7,0,3,1.4,3,3v101.5
						C1122.5,1038.5,1121.2,1039.9,1119.5,1039.9z M1081.9,1033.8h34.6v-95.5h-34.6V1033.8z"/>
				</g>
				<g>
					<path class="st5" d="M1190.6,1039.9H1150c-1.7,0-3-1.4-3-3V844c0-1.7,1.4-3,3-3h40.6c1.7,0,3,1.4,3,3v192.9
						C1193.6,1038.5,1192.2,1039.9,1190.6,1039.9z M1153,1033.8h34.6V847H1153V1033.8z"/>
				</g>
				<g>
					<path class="st5" d="M963.5,877.7c-0.8,0-1.7-0.4-2.3-1c-1.1-1.3-1-3.2,0.3-4.3l53.2-46.1c1.3-1.1,3.2-1,4.3,0.3
						c1.1,1.3,1,3.2-0.3,4.3L965.5,877C964.9,877.5,964.2,877.7,963.5,877.7z"/>
				</g>
				<g>
					<path class="st5" d="M1090.2,846.5c-0.4,0-0.8-0.1-1.1-0.2l-47.9-19.2c-1.6-0.6-2.3-2.4-1.7-3.9c0.6-1.5,2.4-2.3,3.9-1.7
						l47.9,19.2c1.5,0.6,2.3,2.4,1.7,3.9C1092.5,845.7,1091.4,846.5,1090.2,846.5z"/>
				</g>
				<g>
					<path class="st5" d="M1114,840.5c-0.7,0-1.4-0.2-1.9-0.7c-1.3-1.1-1.5-3-0.4-4.3l56.7-68c1.1-1.3,3-1.5,4.3-0.4
						c1.3,1.1,1.5,3,0.4,4.3l-56.7,68C1115.7,840.1,1114.9,840.5,1114,840.5z"/>
				</g>
				<g>
					<path class="st8" d="M1180.4,776c-10.1,0-18.2-8.2-18.2-18.3c0-10.1,8.2-18.2,18.2-18.2c10.1,0,18.2,8.2,18.2,18.2
						C1198.7,767.8,1190.5,776,1180.4,776z M1180.4,745.5c-6.7,0-12.2,5.5-12.2,12.2c0,6.7,5.5,12.2,12.2,12.2s12.2-5.5,12.2-12.2
						C1192.6,751,1187.1,745.5,1180.4,745.5z"/>
				</g>
				<g>
					<path class="st8" d="M1104.3,867.3c-10.1,0-18.2-8.2-18.2-18.3c0-10.1,8.2-18.3,18.2-18.3c10.1,0,18.3,8.2,18.3,18.3
						C1122.5,859.2,1114.3,867.3,1104.3,867.3z M1104.3,836.9c-6.7,0-12.2,5.5-12.2,12.2c0,6.7,5.5,12.2,12.2,12.2
						c6.7,0,12.2-5.5,12.2-12.2C1116.5,842.4,1111,836.9,1104.3,836.9z"/>
				</g>
				<g>
					<path class="st8" d="M1028.2,836.9c-10.1,0-18.2-8.2-18.2-18.2c0-10.1,8.2-18.2,18.2-18.2c10.1,0,18.3,8.2,18.3,18.2
						C1046.4,828.7,1038.2,836.9,1028.2,836.9z M1028.2,806.4c-6.7,0-12.2,5.5-12.2,12.2c0,6.7,5.5,12.2,12.2,12.2
						c6.7,0,12.2-5.5,12.2-12.2C1040.4,811.9,1034.9,806.4,1028.2,806.4z"/>
				</g>
				<g>
					<path class="st8" d="M952,902.9c-10.1,0-18.2-8.2-18.2-18.2c0-10.1,8.2-18.3,18.2-18.3c10.1,0,18.3,8.2,18.3,18.3
						C970.3,894.7,962.1,902.9,952,902.9z M952,872.4c-6.7,0-12.2,5.5-12.2,12.2c0,6.7,5.5,12.2,12.2,12.2c6.7,0,12.2-5.5,12.2-12.2
						C964.2,877.9,958.8,872.4,952,872.4z"/>
				</g>
			</g>
		</g>
		<g>
			<g>
				<path class="st5" d="M305.2,653.7c-0.8,0-1.5-0.3-2.1-0.9c-1.2-1.2-1.2-3.1,0-4.3l28.5-28.5c1.2-1.2,3.1-1.2,4.3,0
					c1.2,1.2,1.2,3.1,0,4.3l-28.5,28.5C306.8,653.4,306,653.7,305.2,653.7z"/>
			</g>
			<g>
				<path class="st8" d="M345.2,636.5c-0.8,0-1.5-0.3-2.1-0.9l-22.8-22.8c-0.6-0.6-0.9-1.3-0.9-2.1c0-0.8,0.3-1.6,0.9-2.1l34.2-34.2
					c0.6-0.6,1.3-0.9,2.1-0.9l0,0c0.8,0,1.6,0.3,2.1,0.9l22.8,22.8c0.6,0.6,0.9,1.3,0.9,2.1s-0.3,1.6-0.9,2.1l-34.2,34.2
					C346.7,636.2,345.9,636.5,345.2,636.5z M326.6,610.7l18.5,18.5l30-30l-18.5-18.5L326.6,610.7z"/>
			</g>
			<g>
				
					<rect x="339" y="489.7" transform="matrix(0.7071 -0.7071 0.7071 0.7071 -238.0221 461.3443)" class="st2" width="197.7" height="56.5"/>
				<path class="st5" d="M388,610.9c-0.8,0-1.5-0.3-2.1-0.9L345.9,570c-0.6-0.6-0.9-1.3-0.9-2.1s0.3-1.6,0.9-2.1L485.7,426
					c1.2-1.2,3.1-1.2,4.3,0l39.9,39.9c0.6,0.6,0.9,1.3,0.9,2.1c0,0.8-0.3,1.6-0.9,2.1L390.1,610C389.5,610.6,388.7,610.9,388,610.9z
					 M352.3,567.9l35.7,35.7l135.5-135.5l-35.7-35.7L352.3,567.9z"/>
			</g>
			<g>
				<path class="st8" d="M442.2,436.9c-0.8,0-1.5-0.3-2.1-0.9c-1.2-1.2-1.2-3.1,0-4.3l79.9-79.9c12.4-12.4,31.8-12.4,44.2,0
					c1.2,1.2,1.2,3.1,0,4.3c-1.2,1.2-3.1,1.2-4.3,0c-10-10-25.7-10-35.7,0L444.3,436C443.7,436.6,442.9,436.9,442.2,436.9z"/>
			</g>
			<g>
				
					<rect x="490" y="377.1" transform="matrix(0.7071 -0.7071 0.7071 0.7071 -125.3443 508.0132)" class="st2" width="121" height="56.5"/>
				<path class="st5" d="M527.7,471.1c-0.8,0-1.5-0.3-2.1-0.9l-39.9-39.9c-0.6-0.6-0.9-1.3-0.9-2.1c0-0.8,0.3-1.6,0.9-2.1l85.6-85.6
					c1.2-1.2,3.1-1.2,4.3,0l39.9,39.9c0.6,0.6,0.9,1.3,0.9,2.1s-0.3,1.6-0.9,2.1l-85.6,85.6C529.3,470.8,528.5,471.1,527.7,471.1z
					 M492.1,428.1l35.7,35.7l81.3-81.3l-35.7-35.7L492.1,428.1z"/>
			</g>
		</g>
	</g>
</g>
<g id="colors" class="st0">
</g>
</svg>
