<?xml version="1.0" encoding="utf-8"?>
<!-- Generator: Adobe Illustrator 20.0.0, SVG Export Plug-In . SVG Version: 6.00 Build 0)  -->
<svg version="1.1" xmlns="http://www.w3.org/2000/svg" xmlns:xlink="http://www.w3.org/1999/xlink" x="0px" y="0px"
	 viewBox="0 0 1440 1440" style="enable-background:new 0 0 1440 1440;" xml:space="preserve">
<style type="text/css">
	.st0{display:none;}
	.st1{display:inline;}
	.st2{fill:#FFFFFF;}
	.st3{display:inline;clip-path:url(#SVGID_2_);}
	.st4{opacity:0.31;}
	.st5{fill:#59595C;}
	.st6{fill:#C05F68;}
	.st7{display:inline;fill:#59595C;}
	.st8{fill:#BF5F68;}
	.st9{fill:#8CC23F;stroke:#59595C;stroke-width:4;stroke-linecap:round;stroke-linejoin:round;stroke-miterlimit:10;}
	.st10{fill:none;stroke:#B0B7C0;stroke-linecap:round;stroke-linejoin:round;}
	.st11{fill:none;stroke:#B0B7C0;stroke-linecap:round;stroke-linejoin:round;stroke-dasharray:3.0008,6.0015;}
	.st12{fill:#FFFFFF;stroke:#B0B7C0;stroke-width:3;stroke-linecap:round;stroke-linejoin:round;stroke-miterlimit:10;}
	.st13{fill:none;stroke:#59595C;stroke-width:4;stroke-linecap:round;stroke-linejoin:round;stroke-miterlimit:10;}
	.st14{fill:#8CC03F;}
	.st15{fill:#8CC23F;}
	.st16{display:inline;fill:#6EC5AB;}
	.st17{display:inline;fill:#59595C;stroke:#59595C;stroke-width:3;stroke-miterlimit:10;}
	.st18{display:inline;fill:#6C96A1;}
	.st19{display:inline;fill:#C05F68;}
</style>
<g id="Toolbox" class="st0">
</g>
<g id="Industries" class="st0">
</g>
<g id="Footer" class="st0">
</g>
<g id="RBM_World" class="st0">
</g>
<g id="Editions" class="st0">
</g>
<g id="_x39__Keys">
	<path class="st12" d="M538.9,275.9c-10.2,0-20.1,1.6-29.4,4.3c-15.9-76-83.5-133.1-164.5-133.1c-60.5,0-113.4,32-143,79.8
		c-8.1-1.6-16.5-2.5-25.1-2.5c-71.4,0-129.3,57.7-129.3,128.8c0,71.1,57.9,128.8,129.3,128.8c29.3,0,56.3-9.8,78-26.2
		c26,16.5,56.9,26.2,90.1,26.2c42.5,0,81.3-15.8,110.9-41.8c18.8,25.3,49,41.8,83.1,41.8c57.1,0,103.4-46.1,103.4-103
		C642.4,322.1,596.1,275.9,538.9,275.9z"/>
	<g>
		<g>
			<g>
				<path class="st5" d="M1246.8,862L1246.8,862L818,862c-1.9,0-3.5-1.6-3.5-3.5s1.6-3.5,3.5-3.5h0l428.7,0c1.9,0,3.5,1.6,3.5,3.5
					S1248.7,862,1246.8,862z"/>
			</g>
			<g>
				<path class="st5" d="M1084.7,998.9c-1,0-2-0.4-2.7-1.2c-1.2-1.5-1.1-3.7,0.4-4.9l158.9-134.2L1081.9,725
					c-1.5-1.2-1.7-3.4-0.4-4.9c1.2-1.5,3.4-1.7,4.9-0.4L1249,855.9c0.8,0.7,1.2,1.6,1.2,2.7c0,1-0.4,2-1.2,2.7L1087,998.1
					C1086.3,998.7,1085.5,998.9,1084.7,998.9z"/>
			</g>
		</g>
		<g>
			<g>
				<path class="st5" d="M622,778.6L622,778.6l-428.7,0c-1.9,0-3.5-1.6-3.5-3.5c0-1.9,1.6-3.5,3.5-3.5h0l428.7,0
					c1.9,0,3.5,1.6,3.5,3.5C625.4,777,623.9,778.6,622,778.6z"/>
			</g>
			<g>
				<path class="st5" d="M355.8,914.8c-0.8,0-1.6-0.3-2.2-0.8L191,777.7c-0.8-0.7-1.2-1.6-1.2-2.7c0-1,0.4-2,1.2-2.7L353,635.5
					c1.5-1.2,3.7-1.1,4.9,0.4c1.2,1.5,1.1,3.7-0.4,4.9L198.6,775l159.4,133.6c1.5,1.2,1.7,3.4,0.4,4.9
					C357.8,914.4,356.8,914.8,355.8,914.8z"/>
			</g>
		</g>
		<g>
			<g>
				<path class="st8" d="M773.6,636.3c-0.5,0-1.1-0.1-1.6-0.4c-1.7-0.9-2.4-2.9-1.6-4.7l65.3-130.6c0.9-1.7,2.9-2.4,4.7-1.6
					c1.7,0.9,2.4,2.9,1.6,4.7l-65.3,130.6C776.1,635.6,774.8,636.3,773.6,636.3z"/>
			</g>
			<g>
				<path class="st5" d="M747.2,748.1c-34.5,0-62.5-28-62.5-62.5c0-34.5,28-62.5,62.5-62.5c34.5,0,62.5,28,62.5,62.5
					C809.7,720,781.6,748.1,747.2,748.1z M747.2,630c-30.6,0-55.5,24.9-55.5,55.6c0,30.6,24.9,55.6,55.5,55.6
					c30.6,0,55.6-24.9,55.6-55.6C802.7,654.9,777.8,630,747.2,630z"/>
			</g>
			<g>
				<path class="st8" d="M985.5,537.2c-0.7,0-1.4-0.2-2-0.6l-71.9-50.4c-1.6-1.1-2-3.3-0.9-4.8c1.1-1.6,3.3-2,4.8-0.9l71.9,50.4
					c1.6,1.1,2,3.3,0.9,4.8C987.7,536.6,986.6,537.2,985.5,537.2z"/>
			</g>
			<g>
				<path class="st8" d="M1052.5,515c-0.4,0-0.7-0.1-1.1-0.2c-1.8-0.6-2.8-2.6-2.2-4.4l47-141c0.6-1.8,2.6-2.8,4.4-2.2
					c1.8,0.6,2.8,2.6,2.2,4.4l-47,141C1055.3,514.1,1054,515,1052.5,515z"/>
			</g>
			<g>
				<path class="st5" d="M1033.9,630c-34.5,0-62.5-28-62.5-62.5c0-34.5,28-62.5,62.5-62.5c34.5,0,62.5,28,62.5,62.5
					C1096.4,602,1068.3,630,1033.9,630z M1033.9,512c-30.6,0-55.5,24.9-55.5,55.6c0,30.6,24.9,55.5,55.5,55.5
					c30.6,0,55.6-24.9,55.6-55.5C1089.4,536.9,1064.5,512,1033.9,512z"/>
			</g>
			<g>
				<path class="st5" d="M865.2,512c-34.5,0-62.5-28-62.5-62.5c0-34.5,28-62.5,62.5-62.5c34.5,0,62.5,28,62.5,62.5
					C927.7,483.9,899.7,512,865.2,512z M865.2,393.9c-30.6,0-55.5,24.9-55.5,55.5c0,30.6,24.9,55.6,55.5,55.6
					c30.6,0,55.6-24.9,55.6-55.6C920.8,418.9,895.9,393.9,865.2,393.9z"/>
			</g>
			<g>
				<path class="st5" d="M1118.2,377.1c-34.5,0-62.5-28-62.5-62.5c0-34.5,28-62.5,62.5-62.5c34.5,0,62.5,28,62.5,62.5
					C1180.7,349,1152.6,377.1,1118.2,377.1z M1118.2,259c-30.6,0-55.5,24.9-55.5,55.5c0,30.6,24.9,55.6,55.5,55.6
					c30.6,0,55.5-24.9,55.5-55.6C1173.7,284,1148.8,259,1118.2,259z"/>
			</g>
		</g>
		<g>
			<g>
				<path class="st2" d="M730.1,531.7c132.6-0.1,240.1,107.4,240.2,240c0.1,132.6-107.4,240.1-240,240.2
					c-132.6,0.1-240.1-107.3-240.2-240C490.1,639.4,597.5,531.8,730.1,531.7z"/>
				<path class="st5" d="M730.2,1015.4c-134.2,0-243.5-109.2-243.6-243.4c0-65,25.3-126.2,71.2-172.3c46-46,107.1-71.4,172.2-71.4
					c134.4,0,243.6,109.2,243.7,243.4c0.1,134.3-109.1,243.6-243.4,243.7C730.4,1015.4,730.2,1015.4,730.2,1015.4z M730.2,535.2
					c-63.3,0-122.7,24.7-167.4,69.4c-44.7,44.7-69.2,104.1-69.2,167.3c0.1,130.4,106.2,236.5,236.6,236.5v3.5l0.1-3.5
					c130.5-0.1,236.6-106.3,236.5-236.7C966.8,641.3,860.6,535.2,730.2,535.2z"/>
			</g>
			<g>
				<line class="st2" x1="905.5" y1="708.7" x2="767" y2="748.5"/>
				<path class="st8" d="M767,752c-1.5,0-2.9-1-3.3-2.5c-0.5-1.8,0.5-3.8,2.4-4.3l138.5-39.8c1.8-0.5,3.8,0.5,4.3,2.4
					c0.5,1.8-0.5,3.8-2.4,4.3L768,751.8C767.6,751.9,767.3,752,767,752z"/>
			</g>
			<g>
				<path class="st2" d="M751.2,728.6c16,8.9,21.8,29.1,12.9,45c-8.9,16-29,21.8-45,12.9c-16-8.9-21.8-29-12.9-45
					C715,725.6,735.2,719.8,751.2,728.6z"/>
				<path class="st8" d="M735.2,794.2c-6.2,0-12.3-1.6-17.7-4.6c-8.6-4.7-14.7-12.5-17.4-21.9c-2.7-9.4-1.6-19.3,3.2-27.8
					c6.4-11.6,18.7-18.9,32.1-18.9c6.2,0,12.3,1.6,17.7,4.6c8.5,4.7,14.7,12.5,17.4,21.9c2.7,9.4,1.6,19.3-3.1,27.8
					C760.7,787,748.5,794.2,735.2,794.2z M735.2,728c-10.8,0-20.8,5.9-26,15.3c-3.8,6.9-4.8,14.9-2.6,22.6
					c2.2,7.6,7.2,13.9,14.1,17.7c4.4,2.4,9.4,3.7,14.3,3.7c10.8,0,20.7-5.9,25.9-15.3c3.8-6.9,4.7-14.9,2.5-22.5
					c-2.2-7.6-7.2-13.9-14.1-17.8C745.2,729.3,740.2,728,735.2,728z"/>
			</g>
			<g>
				<line class="st2" x1="630.7" y1="709.2" x2="703.1" y2="749.3"/>
				<path class="st8" d="M703.1,752.8c-0.6,0-1.1-0.1-1.7-0.4L629,712.3c-1.7-0.9-2.3-3-1.4-4.7c0.9-1.7,3-2.3,4.7-1.4l72.4,40.1
					c1.7,0.9,2.3,3,1.4,4.7C705.5,752.2,704.3,752.8,703.1,752.8z"/>
			</g>
		</g>
		<g>
			<g>
				<polygon class="st2" points="748.6,976.3 666.4,1184.4 664.5,1062.3 565.8,1084.8 645.6,866.1 650,998.8 				"/>
				<path class="st8" d="M666.4,1187.9c-0.2,0-0.4,0-0.6-0.1c-1.6-0.3-2.8-1.7-2.8-3.4l-1.8-117.8l-94.5,21.6
					c-1.2,0.3-2.5-0.1-3.4-1.1c-0.8-1-1.1-2.3-0.7-3.5l79.8-218.7c0.6-1.6,2.2-2.5,3.8-2.2c1.6,0.3,2.9,1.7,2.9,3.3l4.2,128.5
					l94.6-21.6c1.3-0.3,2.6,0.1,3.4,1.1c0.8,1,1.1,2.3,0.6,3.5l-82.3,208.2C669.1,1187.1,667.8,1187.9,666.4,1187.9z M664.5,1058.9
					c0.8,0,1.5,0.3,2.1,0.7c0.8,0.6,1.3,1.6,1.3,2.7l1.6,104.6L743,981.1l-92.2,21.1c-1,0.2-2.1,0-2.9-0.6c-0.8-0.6-1.3-1.6-1.4-2.6
					l-3.7-114.8L571.2,1080l92.4-21.1C663.9,1058.9,664.2,1058.9,664.5,1058.9z"/>
			</g>
		</g>
		<g>
			<path class="st5" d="M506.2,866.6C506.1,866.6,506.1,866.6,506.2,866.6l-22.8-0.2c-17.4-0.3-26.2-13.4-26-26.3
				c0.2-12.9,9.5-25.8,26.8-25.5l510.7,6.2c7.5,0.1,13.6-3,17-8.7c3.6-6,3.7-14,0.3-20.1c-3.2-5.8-9.1-9-16.6-9.2l-20.5,0.8
				c-1.9,0.1-3.5-1.4-3.6-3.3c-0.1-1.9,1.4-3.5,3.3-3.6l20.6-0.8c0.1,0,0.1,0,0.2,0c10.1,0.2,18.2,4.7,22.7,12.7
				c4.6,8.3,4.4,18.9-0.4,27c-4.7,7.9-12.9,12.2-23.1,12L484,821.5c-13.4-0.2-19.6,9.5-19.8,18.7c-0.1,9.1,5.8,19.1,19.2,19.3
				l22.8,0.2c1.9,0,3.5,1.6,3.4,3.5C509.6,865.1,508.1,866.6,506.2,866.6z"/>
		</g>
	</g>
</g>
<g id="colors" class="st0">
</g>
</svg>
