<?xml version="1.0" encoding="utf-8"?>
<!-- Generator: Adobe Illustrator 20.0.0, SVG Export Plug-In . SVG Version: 6.00 Build 0)  -->
<svg version="1.1" xmlns="http://www.w3.org/2000/svg" xmlns:xlink="http://www.w3.org/1999/xlink" x="0px" y="0px"
	 viewBox="0 0 1440 1440" style="enable-background:new 0 0 1440 1440;" xml:space="preserve">
<style type="text/css">
	.st0{display:none;}
	.st1{display:inline;}
	.st2{fill:#FFFFFF;}
	.st3{display:inline;clip-path:url(#SVGID_2_);}
	.st4{opacity:0.31;}
	.st5{fill:#59595C;}
	.st6{fill:#C05F68;}
	.st7{display:inline;fill:#59595C;}
	.st8{fill:#BF5F68;}
	.st9{fill:#8CC23F;stroke:#59595C;stroke-width:4;stroke-linecap:round;stroke-linejoin:round;stroke-miterlimit:10;}
	.st10{fill:none;stroke:#B0B7C0;stroke-linecap:round;stroke-linejoin:round;}
	.st11{fill:none;stroke:#B0B7C0;stroke-linecap:round;stroke-linejoin:round;stroke-dasharray:3.0008,6.0015;}
	.st12{fill:#FFFFFF;stroke:#B0B7C0;stroke-width:3;stroke-linecap:round;stroke-linejoin:round;stroke-miterlimit:10;}
	.st13{fill:none;stroke:#59595C;stroke-width:4;stroke-linecap:round;stroke-linejoin:round;stroke-miterlimit:10;}
	.st14{fill:#8CC03F;}
	.st15{fill:#8CC23F;}
	.st16{display:inline;fill:#6EC5AB;}
	.st17{display:inline;fill:#59595C;stroke:#59595C;stroke-width:3;stroke-miterlimit:10;}
	.st18{display:inline;fill:#6C96A1;}
	.st19{display:inline;fill:#C05F68;}
</style>
<g id="Toolbox" class="st0">
</g>
<g id="Industries" class="st0">
</g>
<g id="Footer" class="st0">
</g>
<g id="RBM_World" class="st0">
</g>
<g id="Editions" class="st0">
</g>
<g id="_x39__Keys">
	<path class="st12" d="M368.7,167.4c-6.4,0-12.6,1-18.4,2.7c-10-47.6-52.3-83.4-103-83.4c-37.9,0-71,20-89.6,50
		c-5.1-1-10.3-1.6-15.7-1.6c-44.7,0-81,36.1-81,80.7c0,44.6,36.2,80.6,81,80.6c18.4,0,35.3-6.1,48.8-16.4
		c16.3,10.4,35.6,16.4,56.4,16.4c26.6,0,50.9-9.9,69.5-26.2c11.8,15.9,30.7,26.2,52,26.2c35.8,0,64.8-28.9,64.8-64.5
		C433.4,196.3,404.4,167.4,368.7,167.4z"/>
	<g>
		<g>
			<g>
				<path class="st5" d="M608.1,1008.4c-0.7,0-1.4-0.2-2-0.6c-0.8-0.5-1.3-1.3-1.5-2.3l-34.9-173.1c-0.4-1.9,0.9-3.8,2.8-4.2
					l278.9-56.3c1.9-0.4,3.8,0.9,4.2,2.8l34.9,173.1c0.4,1.9-0.9,3.8-2.8,4.2l-279,56.3C608.6,1008.4,608.4,1008.4,608.1,1008.4z
					 M577.4,834.4l33.5,166.1l271.9-54.9l-33.5-166.1L577.4,834.4z"/>
			</g>
			<g>
				<path class="st5" d="M642.5,980.9c-13.5,0-24.7-9.3-27.4-22.6l-17.5-86.6c-1.5-7.4,0-14.9,4.1-21.1c4.1-6.2,10.5-10.5,17.9-12
					L812,799.8c1.9-0.4,3.8-0.6,5.7-0.6c13.5,0,24.7,9.3,27.4,22.6l17.5,86.6c3.1,15.5-6.5,30-22,33.1l-192.4,38.8
					C646.4,980.7,644.4,980.9,642.5,980.9z M817.7,806.4c-1.4,0-2.9,0.1-4.3,0.4l-192.4,38.8c-5.5,1.1-10.3,4.3-13.4,8.9
					c-3.1,4.6-4.2,10.2-3,15.8l17.5,86.6c2,9.9,10.4,16.8,20.4,16.8c1.4,0,2.9-0.1,4.3-0.4l192.4-38.8c11.5-2.3,18.7-13.2,16.4-24.7
					l-17.5-86.6C836.1,813.3,827.7,806.4,817.7,806.4z"/>
			</g>
			<g>
				<path class="st8" d="M730.1,928c-18,0-33.6-12.8-37.1-30.4c-4.1-20.5,9.2-40.5,29.7-44.7c2.5-0.5,5-0.8,7.5-0.8
					c18,0,33.6,12.8,37.1,30.4c4.1,20.5-9.2,40.5-29.7,44.7C735.1,927.8,732.6,928,730.1,928z M730.2,859.3c-2,0-4.1,0.2-6.1,0.6
					c-16.6,3.4-27.4,19.6-24.1,36.3c2.9,14.3,15.6,24.7,30.1,24.7c2,0,4.1-0.2,6.1-0.6c16.6-3.4,27.4-19.6,24.1-36.3
					C757.4,869.7,744.7,859.3,730.2,859.3z"/>
			</g>
			<g>
				<path class="st5" d="M817.7,915.8c-6.3,0-11.9-4.5-13.1-10.8c-1.5-7.2,3.2-14.3,10.5-15.8c0.9-0.2,1.8-0.3,2.7-0.3
					c6.3,0,11.9,4.5,13.1,10.7c0.7,3.5,0,7.1-2,10.1c-2,3-5,5-8.5,5.7C819.5,915.7,818.6,915.8,817.7,915.8z M817.7,896.2
					c-0.4,0-0.8,0-1.3,0.1c-3.4,0.7-5.6,4-4.9,7.3c0.7,3.3,4,5.6,7.4,4.9c1.6-0.3,3-1.3,4-2.7c0.9-1.4,1.2-3.1,0.9-4.7
					C823.2,898.3,820.7,896.2,817.7,896.2z"/>
			</g>
			<g>
				<path class="st5" d="M642.5,891.1c-6.3,0-11.9-4.5-13.1-10.7c-0.7-3.5,0-7.1,2-10.1c2-3,5-5,8.5-5.7c0.9-0.2,1.8-0.3,2.7-0.3
					c6.3,0,11.8,4.5,13.1,10.7c0.7,3.5,0,7.1-2,10.1c-2,3-5,5-8.5,5.7C644.3,891,643.4,891.1,642.5,891.1z M642.6,871.5
					c-0.4,0-0.8,0-1.3,0.1c-1.6,0.3-3.1,1.3-4,2.7c-0.9,1.4-1.2,3-0.9,4.7c0.7,3.3,4,5.6,7.4,4.9c1.6-0.3,3-1.3,4-2.7
					c0.9-1.4,1.2-3.1,0.9-4.7C648.1,873.6,645.5,871.5,642.6,871.5z"/>
			</g>
		</g>
		<g>
			<g>
				<path class="st2" d="M721.7,1060.7h182.7c51.8,0,51.8-78.5,0-78.5c-57.5,0-60.9,0.4-104.4,0c-16.3-13-66.6-52-143.5-52H553.9
					v180.7c343.2,114.4,232.3,119.8,624.5-76.3c-34.7-34.7-62.2-48.4-98-38.1l-141.2,46.8"/>
				<path class="st5" d="M825.7,1194.4c-42.2,0-87.6-15.9-169.4-44.6c-29.6-10.4-63.3-22.2-103.5-35.6c-1.5-0.5-2.4-1.9-2.4-3.4
					V930.2c0-2,1.6-3.6,3.6-3.6h102.6c52.2,0,100.9,17.5,144.8,52c25.5,0.2,37.1,0.2,54.6,0.1c11.6,0,25.9-0.1,48.6-0.1
					c27.9,0,42.5,21.5,42.5,42.8c0,5.8-1,11.4-3,16.5l135.3-44.9c40.5-11.6,69.9,7.2,101.7,39c0.8,0.8,1.2,2,1,3.1
					c-0.2,1.1-0.9,2.1-1.9,2.6c-59.5,29.7-108.1,55.2-147.1,75.7C925.9,1169.5,878.4,1194.4,825.7,1194.4z M557.5,1108.3
					c39.2,13.1,72,24.6,101.1,34.8c181.2,63.5,181.2,63.5,371-36c38.1-20,85.2-44.7,142.7-73.5c-34.6-33.6-59.6-42.7-91-33.7
					l-141.1,46.8c-0.3,0.1-0.7,0.2-1,0.2c-0.9,1.4-1.9,2.7-3,3.9c-7.8,8.8-18.8,13.5-31.8,13.5H721.7c-2,0-3.6-1.6-3.6-3.6
					s1.6-3.6,3.6-3.6h182.7c11,0,20.1-3.8,26.5-11c5.7-6.5,8.8-15.2,8.8-24.6c0-17.2-11-35.7-35.3-35.7c-22.7,0-36.9,0.1-48.6,0.1
					c-17.8,0.1-29.5,0.1-55.9-0.1c-0.8,0-1.6-0.3-2.2-0.8c-42.8-34-90.4-51.3-141.3-51.3h-99V1108.3z"/>
			</g>
		</g>
		<g>
			<g>
				<path class="st5" d="M1121.9,556c-0.7,0-1.3-0.2-1.9-0.6L881.4,400.3c-0.8-0.5-1.3-1.3-1.5-2.3c-0.2-0.9,0-1.9,0.5-2.7
					l96.3-148.1c0.5-0.8,1.3-1.4,2.3-1.5c0.9-0.2,1.9,0,2.7,0.5l238.5,155.2c1.7,1.1,2.1,3.3,1,4.9l-96.3,148.1
					C1124.2,555.5,1123.1,556,1121.9,556z M888.3,396.2l232.5,151.3l92.4-142.1L980.7,254.2L888.3,396.2z"/>
			</g>
			<g>
				<path class="st5" d="M1109,519.5c-5.4,0-10.8-1.6-15.4-4.6l-164.5-107c-6.3-4.1-10.7-10.4-12.2-17.7c-1.5-7.3-0.1-14.8,4-21.2
					l48.2-74c5.2-8,14-12.8,23.5-12.8c5.4,0,10.8,1.6,15.4,4.6l164.5,107c13.2,8.6,16.8,25.7,8.2,38.9l-48.2,74
					C1127.3,514.7,1118.5,519.5,1109,519.5z M992.6,289.3c-7.1,0-13.6,3.6-17.5,9.6l-48.2,74c-3.1,4.7-4.1,10.3-3,15.8
					c1.2,5.4,4.4,10.1,9.1,13.2l164.5,107c3.5,2.3,7.4,3.5,11.5,3.5c7.1,0,13.6-3.6,17.5-9.6l48.2-74c6.4-9.9,3.7-22.6-6.1-29
					l-164.5-107C1000.6,290.5,996.6,289.3,992.6,289.3z"/>
			</g>
			<g>
				<path class="st8" d="M1050.8,438.8c-7.3,0-14.5-2.1-20.7-6.1c-17.5-11.4-22.5-34.9-11.1-52.5c7-10.8,18.9-17.2,31.8-17.2
					c7.3,0,14.5,2.1,20.6,6.1c17.5,11.4,22.5,34.9,11.1,52.5C1075.5,432.3,1063.7,438.8,1050.8,438.8z M1050.8,370.1
					c-10.5,0-20.1,5.2-25.8,14c-9.3,14.2-5.2,33.3,9,42.6c5,3.3,10.8,5,16.8,5c10.5,0,20.1-5.2,25.8-14c9.3-14.2,5.2-33.3-9-42.6
					C1062.6,371.8,1056.8,370.1,1050.8,370.1z"/>
			</g>
			<g>
				<path class="st5" d="M1104.6,484.4c-2.6,0-5.1-0.7-7.3-2.2c-6.2-4-7.9-12.3-3.9-18.5c2.5-3.8,6.7-6.1,11.2-6.1
					c2.6,0,5.1,0.8,7.3,2.2c3,2,5.1,4.9,5.8,8.4c0.7,3.5,0.1,7.1-1.9,10.1C1113.4,482.1,1109.2,484.4,1104.6,484.4z M1104.7,464.8
					c-2.1,0-4.1,1.1-5.2,2.8c-1.9,2.9-1.1,6.8,1.8,8.6c1,0.7,2.2,1,3.4,1c2.1,0,4.1-1.1,5.2-2.8c0.9-1.4,1.2-3.1,0.9-4.7
					c-0.3-1.6-1.3-3-2.7-3.9C1107,465.1,1105.9,464.8,1104.7,464.8z"/>
			</g>
			<g>
				<path class="st5" d="M996.9,344.1c-2.6,0-5.1-0.7-7.3-2.2c-3-2-5.1-5-5.8-8.5c-0.7-3.5-0.1-7.1,1.9-10.1
					c2.5-3.8,6.7-6.1,11.2-6.1c2.6,0,5.1,0.8,7.3,2.2c3,1.9,5.1,4.9,5.8,8.4c0.7,3.5,0.1,7.1-1.9,10.1
					C1005.7,341.8,1001.5,344.1,996.9,344.1z M996.9,324.4c-2.1,0-4.1,1.1-5.2,2.8c-0.9,1.4-1.2,3.1-0.9,4.7c0.3,1.6,1.3,3,2.7,3.9
					c1,0.7,2.2,1,3.4,1c2.1,0,4.1-1.1,5.3-2.8c0.9-1.4,1.2-3.1,0.9-4.7c-0.3-1.6-1.3-3-2.7-3.9C999.3,324.8,998.1,324.4,996.9,324.4
					z"/>
			</g>
		</g>
		<g>
			<g>
				<path class="st5" d="M696.3,696.1c-37.1,0-67.3-30.2-67.3-67.3c0-37.1,30.2-67.3,67.3-67.3c0.9,0,1.8,0.1,2.7,0.1l1,0.1
					c2,0.1,3.5,1.8,3.4,3.8c-0.1,2-1.8,3.5-3.8,3.4l-1.1-0.1c-0.8-0.1-1.5-0.1-2.3-0.1c-33.2,0-60.1,27-60.1,60.1
					c0,33.2,27,60.1,60.1,60.1c33.2,0,60.1-27,60.1-60.1c0-0.8-0.1-1.5-0.1-2.3l-0.1-1.1c-0.1-2,1.4-3.7,3.4-3.8
					c2-0.1,3.7,1.4,3.8,3.4l0.1,1c0.1,0.9,0.1,1.8,0.1,2.7C763.6,665.9,733.4,696.1,696.3,696.1z"/>
			</g>
			<g>
				<path class="st5" d="M763.4,629c-37.1,0-67.3-30.2-67.3-67.3c0-37.1,30.2-67.3,67.3-67.3c37.1,0,67.3,30.2,67.3,67.3
					C830.7,598.9,800.5,629,763.4,629z M763.4,501.6c-33.2,0-60.1,27-60.1,60.1c0,33.2,27,60.1,60.1,60.1c33.2,0,60.1-27,60.1-60.1
					C823.5,528.6,796.5,501.6,763.4,501.6z"/>
			</g>
		</g>
		<g>
			<g>
				<path class="st5" d="M965.7,730.2c-37.1,0-67.3-30.2-67.3-67.3c0-37.1,30.2-67.3,67.3-67.3c37.1,0,67.3,30.2,67.3,67.3
					C1033,700,1002.8,730.2,965.7,730.2z M965.7,602.7c-33.2,0-60.1,27-60.1,60.1c0,33.2,27,60.1,60.1,60.1
					c33.2,0,60.1-27,60.1-60.1C1025.9,629.7,998.9,602.7,965.7,602.7z"/>
			</g>
		</g>
		<g>
			<g>
				<path class="st5" d="M1049.2,922.3c-7.9,0-15.2-4.7-18.5-12l-35.9-79.4c-2.3-5-2.4-10.5-0.5-15.6c1.9-5.1,5.7-9.1,10.7-11.3
					l146.7-66.3c2.7-1.2,5.5-1.8,8.5-1.8c7.9,0,15.2,4.7,18.5,12l35.9,79.4c2.3,5,2.5,10.5,0.5,15.6c-1.9,5.1-5.7,9.1-10.7,11.3
					l-146.7,66.3C1055,921.7,1052.1,922.3,1049.2,922.3z M1160.1,743c-1.9,0-3.7,0.4-5.5,1.2l-146.7,66.3c-3.2,1.5-5.7,4.1-6.9,7.3
					c-1.2,3.3-1.1,6.9,0.4,10.1l35.9,79.4c2.2,4.8,6.7,7.8,11.9,7.8c1.9,0,3.7-0.4,5.5-1.2l146.7-66.3c3.2-1.5,5.7-4.1,7-7.3
					c1.2-3.3,1.1-6.9-0.4-10.1l-35.9-79.4C1169.9,746,1165.3,743,1160.1,743z"/>
			</g>
			<g>
				<path class="st5" d="M1005,848.3c-1.4,0-2.7-0.8-3.3-2.1c-0.8-1.8,0-3.9,1.8-4.7l177.2-80.1c1.8-0.8,3.9,0,4.7,1.8
					c0.8,1.8,0,3.9-1.8,4.7l-177.2,80.1C1006,848.2,1005.5,848.3,1005,848.3z"/>
			</g>
			<g>
				<path class="st8" d="M1138.3,817.4c-1.4,0-2.7-0.8-3.3-2.1c-0.8-1.8,0-3.9,1.8-4.7l30.6-13.8c1.8-0.8,3.9,0,4.7,1.8
					c0.8,1.8,0,3.9-1.8,4.7l-30.6,13.8C1139.3,817.3,1138.8,817.4,1138.3,817.4z"/>
			</g>
			<g>
				<path class="st8" d="M1040.5,861.7c-1.4,0-2.7-0.8-3.3-2.1c-0.8-1.8,0-3.9,1.8-4.7l61.1-27.6c1.8-0.8,3.9,0,4.7,1.8
					c0.8,1.8,0,3.9-1.8,4.7l-61.1,27.6C1041.5,861.6,1041,861.7,1040.5,861.7z"/>
			</g>
			<g>
				<path class="st8" d="M1048.8,880c-1.4,0-2.7-0.8-3.3-2.1c-0.8-1.8,0-3.9,1.8-4.7l24.4-11.1c1.8-0.8,3.9,0,4.7,1.8
					c0.8,1.8,0,3.9-1.8,4.7l-24.4,11.1C1049.8,879.9,1049.3,880,1048.8,880z"/>
			</g>
		</g>
		<g>
			<g>
				<path class="st5" d="M596.8,465.1c-7.9,0-15.2-4.7-18.5-12l-35.9-79.4c-2.3-5-2.4-10.5-0.5-15.6c1.9-5.1,5.7-9.1,10.7-11.3
					l146.7-66.3c2.7-1.2,5.5-1.8,8.5-1.8c7.9,0,15.2,4.7,18.5,12l35.9,79.4c2.3,5,2.5,10.5,0.5,15.6c-1.9,5.1-5.7,9.1-10.7,11.3
					l-146.7,66.3C602.6,464.5,599.8,465.1,596.8,465.1z M707.7,285.7c-1.9,0-3.7,0.4-5.5,1.2l-146.7,66.3c-3.2,1.5-5.7,4.1-6.9,7.3
					c-1.2,3.3-1.1,6.9,0.4,10.1l35.9,79.4c2.2,4.8,6.8,7.8,11.9,7.8c1.9,0,3.8-0.4,5.5-1.2L749,390.4c3.3-1.5,5.7-4.1,7-7.4
					c1.2-3.3,1.1-6.9-0.4-10.1l-35.9-79.4C717.5,288.7,712.9,285.7,707.7,285.7z"/>
			</g>
			<g>
				<path class="st5" d="M552.6,391c-1.4,0-2.7-0.8-3.3-2.1c-0.8-1.8,0-3.9,1.8-4.7l177.2-80.1c1.8-0.8,3.9,0,4.7,1.8
					c0.8,1.8,0,3.9-1.8,4.7l-177.2,80.1C553.6,390.9,553.1,391,552.6,391z"/>
			</g>
			<g>
				<path class="st8" d="M685.9,360.2c-1.4,0-2.7-0.8-3.3-2.1c-0.8-1.8,0-3.9,1.8-4.7l30.6-13.8c1.8-0.8,3.9,0,4.7,1.8
					c0.8,1.8,0,3.9-1.8,4.7l-30.6,13.8C686.9,360.1,686.4,360.2,685.9,360.2z"/>
			</g>
			<g>
				<path class="st8" d="M588.1,404.4c-1.4,0-2.7-0.8-3.3-2.1c-0.8-1.8,0-3.9,1.8-4.7l61.1-27.6c1.8-0.8,3.9,0,4.7,1.8
					c0.8,1.8,0,3.9-1.8,4.7l-61.1,27.6C589.1,404.3,588.6,404.4,588.1,404.4z"/>
			</g>
			<g>
				<path class="st8" d="M596.4,422.7c-1.4,0-2.7-0.8-3.3-2.1c-0.8-1.8,0-3.9,1.8-4.7l24.4-11.1c1.8-0.8,3.9,0,4.7,1.8
					c0.8,1.8,0,3.9-1.8,4.7l-24.4,11.1C597.4,422.6,596.9,422.7,596.4,422.7z"/>
			</g>
		</g>
		<g>
			<path class="st8" d="M553.8,1159.7H406.6c-2,0-3.6-1.6-3.6-3.6V891.3c0-2,1.6-3.6,3.6-3.6h147.1c2,0,3.6,1.6,3.6,3.6v264.9
				C557.4,1158.1,555.8,1159.7,553.8,1159.7z M410.2,1152.6h140V894.9h-140V1152.6z"/>
		</g>
		<g>
			<g>
				<path class="st2" d="M620.7,862.8c0,120.5-97.7,218.1-218.1,218.1c-120.5,0-218.1-97.6-218.1-218.1
					c0-120.5,97.6-218.1,218.1-218.1C523,644.6,620.7,742.3,620.7,862.8z"/>
				<path class="st5" d="M402.5,1084.5c-122.2,0-221.7-99.5-221.7-221.7c0-122.2,99.5-221.7,221.7-221.7s221.7,99.5,221.7,221.7
					C624.2,985,524.8,1084.5,402.5,1084.5z M402.5,648.2c-118.3,0-214.6,96.3-214.6,214.6c0,118.3,96.3,214.6,214.6,214.6
					s214.6-96.2,214.6-214.6C617.1,744.5,520.8,648.2,402.5,648.2z"/>
			</g>
			<g>
				<line class="st2" x1="516.3" y1="976.6" x2="423.8" y2="884"/>
				<path class="st8" d="M516.3,980.1c-0.9,0-1.8-0.3-2.5-1l-92.6-92.5c-1.4-1.4-1.4-3.7,0-5.1c1.4-1.4,3.7-1.4,5.1,0l92.6,92.5
					c1.4,1.4,1.4,3.7,0,5.1C518.2,979.8,517.3,980.1,516.3,980.1z"/>
			</g>
			<g>
				<path class="st2" d="M432.6,862.8c0,16.6-13.5,30.1-30.1,30.1c-16.6,0-30.1-13.5-30.1-30.1c0-16.6,13.4-30.1,30.1-30.1
					C419.1,832.7,432.6,846.1,432.6,862.8z"/>
				<path class="st8" d="M402.5,896.4c-18.6,0-33.7-15.1-33.7-33.7c0-18.6,15.1-33.7,33.7-33.7s33.7,15.1,33.7,33.7
					C436.2,881.3,421.1,896.4,402.5,896.4z M402.5,836.2c-14.6,0-26.5,11.9-26.5,26.5c0,14.6,11.9,26.5,26.5,26.5
					c14.6,0,26.5-11.9,26.5-26.5C429.1,848.1,417.2,836.2,402.5,836.2z"/>
			</g>
			<g>
				<path class="st8" d="M395,837.2c-2,0-3.6-1.6-3.6-3.6v-75.2c0-2,1.6-3.6,3.6-3.6c2,0,3.6,1.6,3.6,3.6v75.2
					C398.6,835.6,397,837.2,395,837.2z"/>
			</g>
		</g>
	</g>
</g>
<g id="colors" class="st0">
</g>
</svg>
