<?xml version="1.0" encoding="utf-8"?>
<!-- Generator: Adobe Illustrator 20.0.0, SVG Export Plug-In . SVG Version: 6.00 Build 0)  -->
<svg version="1.1" xmlns="http://www.w3.org/2000/svg" xmlns:xlink="http://www.w3.org/1999/xlink" x="0px" y="0px"
	 viewBox="0 0 1440 1440" style="enable-background:new 0 0 1440 1440;" xml:space="preserve">
<style type="text/css">
	.st0{display:none;}
	.st1{display:inline;}
	.st2{fill:#FFFFFF;}
	.st3{display:inline;clip-path:url(#SVGID_2_);}
	.st4{opacity:0.31;}
	.st5{fill:#59595C;}
	.st6{fill:#C05F68;}
	.st7{display:inline;fill:#59595C;}
	.st8{fill:#BF5F68;}
	.st9{fill:#8CC23F;stroke:#59595C;stroke-width:4;stroke-linecap:round;stroke-linejoin:round;stroke-miterlimit:10;}
	.st10{fill:none;stroke:#B0B7C0;stroke-linecap:round;stroke-linejoin:round;}
	.st11{fill:none;stroke:#B0B7C0;stroke-linecap:round;stroke-linejoin:round;stroke-dasharray:3.0008,6.0015;}
	.st12{fill:#FFFFFF;stroke:#B0B7C0;stroke-width:3;stroke-linecap:round;stroke-linejoin:round;stroke-miterlimit:10;}
	.st13{fill:none;stroke:#59595C;stroke-width:4;stroke-linecap:round;stroke-linejoin:round;stroke-miterlimit:10;}
	.st14{fill:#8CC03F;}
	.st15{fill:#8CC23F;}
	.st16{display:inline;fill:#6EC5AB;}
	.st17{display:inline;fill:#59595C;stroke:#59595C;stroke-width:3;stroke-miterlimit:10;}
	.st18{display:inline;fill:#6C96A1;}
	.st19{display:inline;fill:#C05F68;}
</style>
<g id="Toolbox" class="st0">
</g>
<g id="Industries" class="st0">
</g>
<g id="Footer" class="st0">
</g>
<g id="RBM_World" class="st0">
</g>
<g id="Editions" class="st0">
</g>
<g id="_x39__Keys">
	<path class="st12" d="M1341.6,1245.7c-6.4,0-12.6,1-18.4,2.7c-10-47.6-52.3-83.4-103-83.4c-37.9,0-71,20-89.6,50
		c-5.1-1-10.3-1.6-15.7-1.6c-44.7,0-81,36.1-81,80.7c0,44.6,36.2,80.6,81,80.6c18.4,0,35.3-6.1,48.8-16.4
		c16.3,10.4,35.6,16.4,56.4,16.4c26.6,0,50.9-9.9,69.5-26.2c11.8,15.9,30.7,26.2,52,26.2c35.8,0,64.8-28.9,64.8-64.5
		C1406.4,1274.6,1377.4,1245.7,1341.6,1245.7z"/>
	<path class="st12" d="M917.4,189.9c-6.4,0-12.6,1-18.4,2.7c-10-47.6-52.3-83.4-103-83.4c-37.9,0-71,20-89.6,50
		c-5.1-1-10.3-1.6-15.7-1.6c-44.7,0-81,36.1-81,80.7c0,44.6,36.2,80.6,81,80.6c18.4,0,35.3-6.1,48.8-16.4
		c16.3,10.4,35.6,16.4,56.4,16.4c26.6,0,50.9-9.9,69.5-26.2c11.8,15.9,30.7,26.2,52,26.2c35.8,0,64.8-28.9,64.8-64.5
		C982.2,218.8,953.2,189.9,917.4,189.9z"/>
	<g>
		<g>
			<path class="st5" d="M1150.7,930.6c-1.4,0-2.7-0.7-3.4-2c-5.7-10.4-12.1-20.3-28.4-26.9c-19-7.7-38.6-2.2-42.4-1
				c-2,0.6-4.2-0.5-4.8-2.5c-0.6-2,0.5-4.2,2.5-4.8c4.2-1.3,26.1-7.5,47.6,1.2c18.6,7.6,26.1,19.1,32.2,30.3c1,1.9,0.3,4.2-1.5,5.2
				C1151.9,930.4,1151.3,930.6,1150.7,930.6z"/>
		</g>
		<g>
			<path class="st8" d="M304,367.2c-1,0-1.9-0.4-2.7-1.1l-89.6-86.9c-1.1-1.1-1.5-2.7-0.9-4.2c0.6-1.5,2-2.4,3.6-2.4l327.6-1.5
				c0,0,0,0,0,0c1.9,0,3.5,1.3,3.8,3.2c0.3,1.8-0.7,3.6-2.4,4.3l-238,88.4C304.9,367.1,304.5,367.2,304,367.2z M223.8,280.3
				l81.1,78.6l215.4-80L223.8,280.3z"/>
		</g>
		<g>
			<path class="st8" d="M400.7,483.4c-1.1,0-2.2-0.5-3-1.4l-96.7-116.2c-0.8-1-1.1-2.2-0.8-3.5c0.3-1.2,1.2-2.2,2.4-2.6l238-88.4
				c1.6-0.6,3.3-0.1,4.4,1.2c1,1.3,1.1,3.2,0.1,4.5L403.8,481.8c-0.7,1-1.8,1.6-3,1.7C400.8,483.4,400.7,483.4,400.7,483.4z
				 M310.4,365.1l89.9,108.1l131.5-190.4L310.4,365.1z"/>
		</g>
		<g>
			<path class="st8" d="M264.9,463.5c-0.8,0-1.7-0.3-2.3-0.8c-1.4-1.1-1.9-2.9-1.2-4.5l39.2-96.3c0.8-2,3-2.9,5-2.1
				c2,0.8,2.9,3,2.1,5l-33.9,83.5l62.3-46.8c1.7-1.3,4.1-0.9,5.4,0.8c1.3,1.7,0.9,4.1-0.8,5.4l-73.4,55.1
				C266.5,463.3,265.7,463.5,264.9,463.5z"/>
		</g>
		<g>
			<path class="st2" d="M1110.6,484.3h70.9c0,0,7.4-113.5-28.4-113.5c-42.5,0-42.5,56.7-42.5,56.7s25.9,680.7-99.3,680.7
				c-125.2,0-24-170.2-113.5-170.2c-89.4,0,11.7,226.9-113.5,226.9H344.8c125.2,0,9.9-226.9,99.3-226.9c99.9,0,84.5,0,184.4,0h77.7
				h82h84.1"/>
			<path class="st5" d="M784.4,1168.9H344.8c-2.1,0-3.8-1.7-3.8-3.8c0-2.1,1.7-3.8,3.8-3.8c18.1,0,31.5-4.8,41-14.7
				c21.3-22.2,19.4-66.3,17.7-109c-1.6-38.8-3.2-75.4,13.6-92.8c6.6-6.9,15.7-10.4,27.1-10.4h428.2c2.1,0,3.8,1.7,3.8,3.8
				c0,0.7-0.2,1.4-0.6,2c5.9-3.8,13.2-5.9,22.3-5.9c44.7,0,45.8,39.7,46.8,78.1c1.2,45.2,2.5,92,66.6,92c9.2,0,17.6-4.1,25.7-12.5
				c37.2-38.6,61-165.5,69-367c3.7-92.6,3.2-181.5,2.2-237.6c-0.9-0.7-1.5-1.8-1.5-3c0-1.2,0.5-2.3,1.4-3c-0.6-33-1.4-53.1-1.4-53.6
				c0-21.1,9.7-60.7,46.4-60.7c5.7,0,10.8,2.3,15.1,6.9c22.5,24,17.3,107.1,17.1,110.6c-0.1,2-1.8,3.6-3.8,3.6H1116
				c1,56.2,1.4,144.8-2.2,237.1c-8.2,206.3-32.1,331.5-71.1,372.1c-9.5,9.8-20,14.8-31.3,14.8c-31.9,0-52.8-10.7-63.7-32.9
				c-9.4-19-10-43.2-10.7-66.7c-1.2-43.8-3.7-70.7-39.1-70.7c-37.2,0-38.1,44.2-39.1,95.4C857.5,1099.1,856.1,1168.9,784.4,1168.9z
				 M379.1,1161.2h405.4c64.1,0,65.4-63,66.6-123.9c0.8-40.6,1.6-79.4,22.1-95.4c-0.3,0.1-0.5,0.1-0.8,0.1H444.1
				c-9.3,0-16.3,2.6-21.5,8c-14.5,15.1-13,50.1-11.5,87.2c1.9,44.3,3.8,90-19.8,114.6C387.8,1155.6,383.7,1158.7,379.1,1161.2z
				 M1115.8,480.5h62c0.7-16.2,2.6-82.3-15.2-101.3c-2.8-3-5.9-4.5-9.5-4.5c-38.3,0-38.7,50.7-38.7,52.9
				C1114.5,428.1,1115.2,447.9,1115.8,480.5z"/>
		</g>
		<g>
			<path class="st5" d="M664.7,555.2c0,0-0.1,0-0.1,0c-2.1-0.1-3.8-1.8-3.7-4c2.1-69.4,1.9-117.6,1.9-118.1
				c-0.1-1.4-1.7-39.3,15.2-57.1c5.7-6,12.9-9.1,21.4-9.1c2.1,0,3.8,1.7,3.8,3.8c0,2.1-1.7,3.8-3.8,3.8c-6.3,0-11.5,2.2-15.8,6.7
				c-14.7,15.4-13.1,51.2-13,51.5c0,0.7,0.2,49-1.9,118.5C668.5,553.6,666.8,555.2,664.7,555.2z"/>
		</g>
		<g>
			<path class="st5" d="M897.9,942H664.7c-2.1,0-3.8-1.7-3.8-3.8c0-2.1,1.7-3.8,3.8-3.8h233.2c2.1,0,3.8,1.7,3.8,3.8
				C901.7,940.3,900,942,897.9,942z"/>
		</g>
		<g>
			<path class="st5" d="M1011.4,1112.2H856.7c-2.1,0-3.8-1.7-3.8-3.8c0-2.1,1.7-3.8,3.8-3.8h154.6c2.1,0,3.8,1.7,3.8,3.8
				C1015.2,1110.5,1013.5,1112.2,1011.4,1112.2z"/>
		</g>
		<g>
			<path class="st8" d="M845.5,516.6H774c-2.1,0-3.8-1.7-3.8-3.8c0-2.1,1.7-3.8,3.8-3.8h71.5c2.1,0,3.8,1.7,3.8,3.8
				C849.3,514.8,847.6,516.6,845.5,516.6z"/>
		</g>
		<g>
			<path class="st8" d="M1006.4,601.6H809.7c-2.1,0-3.8-1.7-3.8-3.8c0-2.1,1.7-3.8,3.8-3.8h196.7c2.1,0,3.8,1.7,3.8,3.8
				C1010.3,599.9,1008.5,601.6,1006.4,601.6z"/>
		</g>
		<g>
			<path class="st8" d="M999.4,658.4H784.4c-2.1,0-3.8-1.7-3.8-3.8c0-2.1,1.7-3.8,3.8-3.8h215.1c2.1,0,3.8,1.7,3.8,3.8
				C1003.3,656.6,1001.6,658.4,999.4,658.4z"/>
		</g>
		<g>
			<path class="st8" d="M1006.4,715.1H829.3c-2.1,0-3.8-1.7-3.8-3.8s1.7-3.8,3.8-3.8h177.2c2.1,0,3.8,1.7,3.8,3.8
				S1008.5,715.1,1006.4,715.1z"/>
		</g>
		<g>
			<path class="st8" d="M970.7,771.8H836.9c-2.1,0-3.8-1.7-3.8-3.8c0-2.1,1.7-3.8,3.8-3.8h133.7c2.1,0,3.8,1.7,3.8,3.8
				C974.5,770.1,972.8,771.8,970.7,771.8z"/>
		</g>
		<g>
			<path class="st8" d="M988.5,828.5h-143c-2.1,0-3.8-1.7-3.8-3.8c0-2.1,1.7-3.8,3.8-3.8h143c2.1,0,3.8,1.7,3.8,3.8
				C992.4,826.8,990.7,828.5,988.5,828.5z"/>
		</g>
		<g>
			<path class="st5" d="M1153.2,374.7H699.4c-2.1,0-3.8-1.7-3.8-3.8c0-2.1,1.7-3.8,3.8-3.8h453.8c2.1,0,3.8,1.7,3.8,3.8
				C1157,373,1155.3,374.7,1153.2,374.7z"/>
		</g>
		<g>
			<path class="st5" d="M257.5,563.7c-1.3,0-2.6-0.7-3.4-2c-2.2-3.9-2.9-5.8-4-9.2c-0.5-1.4-1.1-3.1-1.9-5.4
				c-0.1-0.3-0.2-0.6-0.2-0.9l-3.2-25.9c0-0.3,0-0.6,0-0.9c0.2-2.1,0.4-4.1,0.6-6c0.8-8.1,1.5-15.1,2.6-21.4
				c0.4-2.1,2.4-3.5,4.5-3.1c2.1,0.4,3.5,2.4,3.1,4.5c-1.1,5.9-1.7,12.5-2.5,20.7c-0.2,1.8-0.4,3.7-0.6,5.6l3.1,25
				c0.8,2.2,1.4,3.8,1.8,5.2c1.1,3.2,1.6,4.6,3.5,7.9c1,1.9,0.4,4.2-1.5,5.2C258.8,563.5,258.1,563.7,257.5,563.7z"/>
		</g>
		<g>
			<path class="st5" d="M266.8,788.3c-1.6,0-3.1-1-3.6-2.6c-0.7-2,0.4-4.2,2.4-4.9c3.3-1.1,17.2-5.1,45.2-13c2-0.6,4.2,0.6,4.7,2.7
				c0.6,2-0.6,4.2-2.7,4.7c-17.3,4.9-40.7,11.5-44.7,12.9C267.7,788.2,267.3,788.3,266.8,788.3z"/>
		</g>
		<g>
			<path class="st5" d="M199.9,894.3c-1.6,0-3.2-1.1-3.7-2.7c-3.8-12.1-3.8-27.7-0.1-49c3.2-18.4,14.4-33.7,30.8-42.2
				c1.9-1,4.2-0.2,5.2,1.7c1,1.9,0.2,4.2-1.7,5.2c-8.4,4.3-22.9,14.8-26.7,36.6c-3.5,20.1-3.5,34.5-0.1,45.5c0.6,2-0.5,4.2-2.5,4.8
				C200.6,894.2,200.3,894.3,199.9,894.3z"/>
		</g>
		<g>
			<path class="st5" d="M286.2,992.9c-0.5,0-1-0.1-1.5-0.3c-39.8-17-54.1-33.6-71-64.4c-1-1.9-0.3-4.2,1.5-5.2
				c1.9-1,4.2-0.3,5.2,1.5c16.4,29.8,29.3,44.8,67.3,61.1c2,0.8,2.9,3.1,2,5.1C289.2,992,287.7,992.9,286.2,992.9z"/>
		</g>
		<g>
			<path class="st5" d="M394.7,1041.1c-0.5,0-1.1-0.1-1.6-0.4c-8.5-3.9-22.2-9.3-36.7-15.1c-13.6-5.4-27.6-11-37.3-15.2
				c-1.9-0.9-2.8-3.1-2-5.1c0.9-1.9,3.1-2.8,5.1-2c9.5,4.2,23.5,9.8,37,15.1c14.6,5.8,28.4,11.3,37.1,15.2c1.9,0.9,2.8,3.2,1.9,5.1
				C397.6,1040.2,396.2,1041.1,394.7,1041.1z"/>
		</g>
		<g>
			<path class="st5" d="M515.5,1063.4c-0.2,0-0.4,0-0.6,0c-9.3-1.4-23.9-3-39.5-4.6c-14.5-1.5-29.5-3-40-4.6
				c-2.1-0.3-3.6-2.3-3.3-4.4c0.3-2.1,2.3-3.6,4.4-3.3c10.3,1.5,25.2,3,39.7,4.5c15.6,1.6,30.4,3.1,39.9,4.6
				c2.1,0.3,3.5,2.3,3.2,4.4C519,1062.1,517.4,1063.4,515.5,1063.4z"/>
		</g>
		<g>
			<path class="st5" d="M760.7,1067.8c-0.1,0-0.1,0-0.2,0c-9.4-0.4-24.1-0.4-39.7-0.3c-14.6,0.1-29.7,0.2-40.2-0.2
				c-2.1-0.1-3.8-1.9-3.7-4c0.1-2.1,1.9-3.8,4-3.7c10.4,0.4,25.4,0.3,39.9,0.2c15.7-0.1,30.5-0.2,40.1,0.3c2.1,0.1,3.8,1.9,3.7,4
				C764.4,1066.1,762.7,1067.8,760.7,1067.8z"/>
		</g>
		<g>
			<path class="st5" d="M885.5,1068c-0.1,0-0.1,0-0.2,0c-9.4-0.4-24.1-0.4-39.7-0.3c-14.6,0.1-29.7,0.2-40.2-0.2
				c-2.1-0.1-3.8-1.9-3.7-4c0.1-2.1,1.9-3.8,4-3.7c10.4,0.4,25.4,0.3,39.9,0.2c15.7-0.1,30.5-0.2,40.1,0.3c2.1,0.1,3.8,1.9,3.7,4
				C889.2,1066.4,887.5,1068,885.5,1068z"/>
		</g>
		<g>
			<path class="st5" d="M1005.6,1068.3c-0.1,0-0.1,0-0.2,0c-9.4-0.4-24.1-0.4-39.7-0.3c-14.6,0.1-29.7,0.2-40.2-0.2
				c-2.1-0.1-3.8-1.9-3.7-4c0.1-2.1,1.9-3.8,4-3.7c10.4,0.4,25.4,0.3,39.9,0.2c15.7-0.1,30.5-0.2,40.1,0.3c2.1,0.1,3.8,1.9,3.7,4
				C1009.3,1066.7,1007.6,1068.3,1005.6,1068.3z"/>
		</g>
		<g>
			<path class="st5" d="M1060.1,1067c-6,0-11.5-0.1-16.2-0.3c-2.1-0.1-3.8-1.9-3.7-4c0.1-2.1,1.9-3.8,4-3.7
				c21.3,0.8,66.2,0.2,83.7-7.3c2-0.8,4.2,0.1,5.1,2c0.8,2-0.1,4.2-2,5.1C1115.9,1065.3,1084.2,1067,1060.1,1067z"/>
		</g>
		<g>
			<path class="st5" d="M1154.1,1035.5c-1.1,0-2.1-0.4-2.9-1.3c-1.4-1.6-1.3-4,0.3-5.4c8.9-7.9,17.1-16.4,19.9-33.7
				c3.3-20.2-6.5-38.1-8.5-41.5c-1.1-1.8-0.5-4.2,1.4-5.3c1.8-1.1,4.2-0.5,5.3,1.4c2.2,3.8,13.2,23.8,9.5,46.7
				c-3.2,19.8-12.8,29.7-22.4,38.2C1156,1035.2,1155,1035.5,1154.1,1035.5z"/>
		</g>
		<g>
			<path class="st5" d="M872.7,685.3c-0.1,0-0.2,0-0.3,0c-11.3-0.8-72.7-7.2-80.2-8.3c-2.1-0.3-3.5-2.3-3.2-4.4
				c0.3-2.1,2.3-3.5,4.4-3.2c7.4,1.1,68.3,7.5,79.6,8.3c2.1,0.2,3.7,2,3.6,4.1C876.4,683.7,874.7,685.3,872.7,685.3z"/>
		</g>
		<g>
			<path class="st5" d="M1013.1,694.9C1013.1,694.9,1013.1,694.9,1013.1,694.9c-11.5-0.1-89.4-4.5-96.8-5.6
				c-2.1-0.3-3.5-2.3-3.2-4.4c0.3-2.1,2.3-3.5,4.4-3.2c6.4,1,82.4,5.4,95.7,5.5c2.1,0,3.8,1.8,3.8,3.9
				C1016.9,693.2,1015.2,694.9,1013.1,694.9z"/>
		</g>
		<g>
			<path class="st5" d="M1197.5,691c-1.8,0-3.4-1.3-3.8-3.1c-0.4-2.1,1-4.1,3.1-4.5c2-0.4,4.1-0.7,6.3-1.1
				c16.3-2.7,33.1-5.4,35.5-29c2.6-25.6-8-28.6-21.4-32.4c-1.2-0.3-2.5-0.7-3.7-1.1c-2-0.6-3.2-2.8-2.6-4.8c0.6-2,2.8-3.2,4.8-2.6
				c1.2,0.4,2.4,0.7,3.6,1c14.1,4,30.1,8.6,26.9,40.6c-3,29.4-25.5,33.1-41.9,35.8c-2.1,0.3-4.1,0.7-6.1,1.1
				C1198,690.9,1197.8,691,1197.5,691z"/>
		</g>
		<g>
			<path class="st5" d="M1182.2,605c-0.3,0-0.6,0-0.9-0.1c-10.6-2.5-62.8-13.4-65.9-13.8c-2.1-0.3-3.6-2.2-3.3-4.3
				c0.2-2.1,2.1-3.6,4.2-3.4c2.6,0.2,56.9,11.6,66.8,14c2.1,0.5,3.3,2.6,2.9,4.6C1185.5,603.8,1183.9,605,1182.2,605z"/>
		</g>
		<g>
			<g>
				<path class="st2" d="M767.5,938.1c-1.3-3.8-3.2-7.4-5.5-10.8c21.3,4.5,43.5-6.6,52.1-27.4c8.6-20.9,0.8-44.4-17.5-56.2
					c21.4-4,37.7-22.7,37.7-45.3c0-22.6-16.2-41.3-37.7-45.3c18.3-11.9,26.1-35.4,17.5-56.2c-8.6-20.9-30.8-31.9-52.1-27.4
					c12.3-18,10.6-42.7-5.4-58.6c-16-16-40.7-17.7-58.6-5.4c4.5-21.3-6.6-43.4-27.4-52.1c-20.9-8.7-44.4-0.8-56.2,17.5
					c-4-21.4-22.7-37.7-45.3-37.7c-22.6,0-41.3,16.2-45.3,37.7c-11.9-18.3-35.4-26.1-56.3-17.5c-20.8,8.6-31.9,30.8-27.4,52.1
					c-18-12.3-42.7-10.6-58.6,5.4c-16,16-17.7,40.7-5.4,58.6c-21.3-4.5-43.5,6.6-52.1,27.4c-8.6,20.9-0.8,44.3,17.4,56.2
					c-21.4,4-37.6,22.7-37.6,45.3c0,22.6,16.2,41.3,37.6,45.3c-18.3,11.9-26.1,35.4-17.5,56.2c8.6,20.9,30.8,31.9,52.1,27.4
					c-12.3,18-10.6,42.7,5.4,58.6c16,16,40.7,17.7,58.6,5.4c-4.5,21.3,6.6,43.5,27.4,52.1c20.9,8.6,44.4,0.8,56.2-17.5
					c4,21.4,22.7,37.6,45.3,37.6c22.6,0,41.3-16.2,45.3-37.6c11.9,18.3,35.4,26.1,56.2,17.5c20.9-8.7,31.9-30.8,27.4-52.1
					c18,12.3,42.7,10.6,58.6-5.4C769.5,973,773.1,954.3,767.5,938.1"/>
				<path class="st5" d="M569,1067.5c-21.3,0-39.9-13.5-47-33c-9.4,10.4-22.7,16.4-37,16.4c-6.5,0-13-1.3-19.1-3.8
					c-19.7-8.2-31.7-27.8-30.7-48.5c-6.6,3.1-13.9,4.8-21.3,4.8c-13.3,0-25.8-5.2-35.2-14.6c-15.1-15.1-18.7-37.8-9.8-56.6
					c-0.8,0-1.6,0.1-2.4,0.1c-20.3,0-38.4-12.1-46.1-30.8c-8.1-19.7-2.8-42.1,12.6-56c-19.5-7-33-25.7-33-47c0-21.3,13.5-40,33-47
					c-15.4-14-20.7-36.3-12.5-56c7.8-18.7,25.9-30.8,46.1-30.8c0.8,0,1.6,0,2.4,0.1c-8.9-18.8-5.2-41.5,9.8-56.6
					c9.4-9.4,21.9-14.6,35.3-14.6c7.4,0,14.7,1.6,21.3,4.7c-1-20.7,11-40.3,30.7-48.5c6.1-2.5,12.5-3.8,19.1-3.8
					c14.3,0,27.6,6,37,16.4c7-19.5,25.6-33,47-33c21.3,0,39.9,13.5,47,33c9.4-10.4,22.7-16.4,37-16.4c6.5,0,13,1.3,19.1,3.8
					c19.7,8.2,31.8,27.8,30.8,48.5c6.6-3.1,13.9-4.8,21.3-4.8c13.3,0,25.8,5.2,35.2,14.6c15.1,15.1,18.7,37.8,9.8,56.6
					c0.8,0,1.6-0.1,2.4-0.1c20.3,0,38.4,12.1,46.1,30.8c8.2,19.7,2.8,42.1-12.6,56c19.5,7,33,25.6,33,47c0,21.3-13.5,40-33,47
					c15.4,14,20.7,36.3,12.6,56c-7.8,18.7-25.9,30.8-46.1,30.8c-0.8,0-1.6,0-2.4-0.1c0.7,1.6,1.4,3.1,2,4.8
					c6.4,18.3,1.9,38.1-11.8,51.8c-9.4,9.4-21.9,14.6-35.2,14.6c0,0,0,0,0,0c-7.4,0-14.7-1.6-21.3-4.8c1,20.7-11.1,40.3-30.8,48.5
					c-6.1,2.5-12.5,3.8-19.1,3.8c-14.3,0-27.6-6-37-16.4C609,1054,590.3,1067.5,569,1067.5z M523.7,1022.2c0.2,0,0.5,0,0.8,0.1
					c1.5,0.3,2.7,1.5,3,3.1c3.7,20,21.2,34.5,41.5,34.5c20.3,0,37.8-14.5,41.5-34.5c0.3-1.5,1.5-2.8,3-3.1c1.6-0.3,3.1,0.4,4,1.7
					c7.8,12,21.1,19.2,35.4,19.2c5.5,0,10.9-1.1,16.1-3.2c18.8-7.8,29.3-27.9,25.1-47.8c-0.3-1.5,0.3-3.1,1.6-4c1.3-0.9,3-0.9,4.3,0
					c7.1,4.9,15.3,7.4,23.9,7.4c0,0,0,0,0,0c11.3,0,21.8-4.4,29.8-12.4c11.6-11.6,15.4-28.4,10-43.8c-1.2-3.5-2.9-6.9-5-9.9
					c-0.9-1.3-0.9-3,0-4.3c0.9-1.3,2.5-2,4-1.6c2.9,0.6,5.8,0.9,8.7,0.9c17.2,0,32.5-10.2,39-26.1c7.8-18.8,1-40.4-16-51.5
					c-1.3-0.9-2-2.4-1.7-4c0.3-1.5,1.5-2.7,3.1-3c20-3.7,34.5-21.2,34.5-41.5c0-20.3-14.5-37.8-34.5-41.5c-1.5-0.3-2.8-1.5-3.1-3
					c-0.3-1.5,0.4-3.1,1.7-4c17-11.1,23.8-32.8,16-51.5c-6.6-15.8-21.9-26-39-26c-2.9,0-5.9,0.3-8.7,0.9c-1.5,0.3-3.1-0.3-4-1.6
					s-0.9-3,0-4.3c11.5-16.8,9.4-39.4-4.9-53.7c-8-8-18.5-12.3-29.8-12.3c-8.6,0-16.9,2.6-23.9,7.4c-1.3,0.9-3,0.9-4.3,0
					c-1.3-0.9-2-2.5-1.6-4c4.2-19.9-6.4-40-25.1-47.8c-5.2-2.1-10.6-3.2-16.1-3.2c-14.3,0-27.6,7.2-35.4,19.2c-0.9,1.3-2.4,2-4,1.7
					c-1.5-0.3-2.7-1.5-3-3.1c-3.7-20-21.2-34.5-41.5-34.5c-20.3,0-37.8,14.5-41.5,34.5c-0.3,1.5-1.5,2.8-3,3.1
					c-1.5,0.3-3.1-0.4-4-1.7c-7.8-12-21.1-19.2-35.4-19.2c-5.5,0-11,1.1-16.1,3.2c-18.8,7.8-29.3,27.9-25.1,47.7
					c0.3,1.5-0.3,3.1-1.6,4c-1.3,0.9-3,0.9-4.3,0c-7.1-4.8-15.3-7.4-23.9-7.4c-11.3,0-21.8,4.4-29.8,12.4
					c-14.4,14.4-16.4,37-4.9,53.7c0.9,1.3,0.9,3,0,4.3c-0.9,1.3-2.5,2-4,1.6c-2.9-0.6-5.8-0.9-8.7-0.9c-17.1,0-32.5,10.2-39,26.1
					c-7.8,18.8-1,40.4,16,51.5c1.3,0.9,2,2.4,1.7,4c-0.3,1.5-1.5,2.7-3.1,3c-20,3.7-34.5,21.2-34.5,41.5c0,20.3,14.5,37.8,34.5,41.5
					c1.5,0.3,2.8,1.5,3.1,3c0.3,1.5-0.4,3.1-1.7,4c-17,11.1-23.8,32.7-16,51.5c6.6,15.8,21.9,26,39,26c2.9,0,5.9-0.3,8.7-0.9
					c1.5-0.3,3.1,0.3,4,1.6c0.9,1.3,0.9,3,0,4.3c-11.5,16.8-9.4,39.4,4.9,53.7c8,8,18.6,12.4,29.8,12.4c8.6,0,16.9-2.6,23.9-7.4
					c1.3-0.9,3-0.9,4.3,0c1.3,0.9,2,2.5,1.6,4c-4.2,19.9,6.4,40,25.1,47.8c5.2,2.1,10.6,3.2,16.1,3.2c14.3,0,27.6-7.2,35.4-19.2
					C521.2,1022.8,522.5,1022.2,523.7,1022.2z"/>
			</g>
			<g>
				<path class="st8" d="M569,877.5c-22.9,0-41.5-18.6-41.5-41.5c0-2.1,1.7-3.8,3.8-3.8c2.1,0,3.8,1.7,3.8,3.8
					c0,18.6,15.2,33.8,33.8,33.8c18.6,0,33.8-15.2,33.8-33.8c0-18.6-15.2-33.8-33.8-33.8c-22.9,0-41.5-18.6-41.5-41.5
					c0-22.9,18.6-41.5,41.5-41.5c22.9,0,41.5,18.6,41.5,41.5c0,2.1-1.7,3.8-3.8,3.8s-3.8-1.7-3.8-3.8c0-18.6-15.2-33.8-33.8-33.8
					c-18.6,0-33.8,15.2-33.8,33.8c0,18.6,15.2,33.8,33.8,33.8c22.9,0,41.5,18.6,41.5,41.5C610.5,858.9,591.9,877.5,569,877.5z"/>
			</g>
			<g>
				<path class="st8" d="M569,902.6c-2.1,0-3.8-1.7-3.8-3.8V698c0-2.1,1.7-3.8,3.8-3.8s3.8,1.7,3.8,3.8v200.8
					C572.9,900.9,571.1,902.6,569,902.6z"/>
			</g>
		</g>
		<g>
			<path class="st5" d="M357.9,619.7c-0.3,0-0.7,0-1-0.1c-2-0.6-4-1.1-5.9-1.6c-7.9-2.1-14.7-3.9-20.6-6l-28-10.2
				c-0.2-0.1-0.5-0.2-0.7-0.3c-1.8-1.1-3.5-2.2-5.1-3.2c-7-4.3-13-8-18.1-11.7c-1.7-1.3-2.1-3.7-0.8-5.4c1.3-1.7,3.7-2.1,5.4-0.8
				c4.9,3.6,10.5,7,17.5,11.4c1.6,1,3.2,1.9,4.8,3l27.6,10.1c5.7,2,12,3.7,20,5.8c1.9,0.5,3.9,1,5.9,1.6c2.1,0.6,3.3,2.7,2.7,4.7
				C361.2,618.5,359.6,619.7,357.9,619.7z"/>
		</g>
		<g>
			<path class="st5" d="M478.5,641.9C478.5,641.9,478.5,641.9,478.5,641.9c-11-0.1-75-9.3-82.7-12.3c-2-0.8-2.9-3-2.1-5
				c0.8-2,3-2.9,5-2.1c6.1,2.5,68.8,11.7,79.8,11.8c2.1,0,3.8,1.8,3.8,3.9C482.4,640.2,480.6,641.9,478.5,641.9z"/>
		</g>
		<g>
			<path class="st5" d="M607.9,656.7c-0.1,0-0.2,0-0.3,0c-2.1-0.1-4.1-0.3-6-0.4c-8.2-0.6-15.2-1-21.5-2l-37.3-4c-2-0.1-4-0.3-6-0.4
				c-8.1-0.6-15.1-1-21.4-2c-2.1-0.3-3.5-2.3-3.2-4.4c0.3-2.1,2.3-3.5,4.4-3.2c6,0.9,12.5,1.4,20.7,1.9c2,0.1,4,0.3,6.1,0.4
				l37.6,4.1c6.2,0.9,12.7,1.4,21,1.9c1.9,0.1,3.9,0.3,6,0.4c2.1,0.2,3.7,2,3.6,4.1C611.6,655.2,609.9,656.7,607.9,656.7z"/>
		</g>
		<g>
			<path class="st5" d="M739.3,670.4c-0.1,0-0.2,0-0.3,0c-11.9-0.8-84.7-8.8-91.9-9.9c-2.1-0.3-3.5-2.3-3.2-4.4
				c0.3-2.1,2.3-3.5,4.4-3.2c6.9,1.1,80.1,9.1,91.3,9.9c2.1,0.2,3.7,2,3.6,4.1C743,668.8,741.3,670.4,739.3,670.4z"/>
		</g>
		<g>
			<path class="st5" d="M1064.2,696.3c-2.8,0-4.8,0-5.7-0.1c-2.1-0.2-3.7-2.1-3.5-4.2c0.2-2.1,2-3.7,4.2-3.5
				c6.8,0.6,85-1.9,97.2-2.8c2.1-0.2,4,1.4,4.1,3.6s-1.4,4-3.6,4.1C1146.6,694.1,1084.5,696.3,1064.2,696.3z"/>
		</g>
		<g>
			<path class="st5" d="M636.7,1067.5c-0.1,0-0.1,0-0.2,0c-9.4-0.4-24.1-0.4-39.7-0.3c-14.6,0.1-29.7,0.2-40.2-0.2
				c-2.1-0.1-3.8-1.9-3.7-4c0.1-2.1,1.9-3.8,4-3.7c10.4,0.4,25.4,0.3,39.9,0.2c15.7-0.1,30.5-0.2,40.1,0.3c2.1,0.1,3.8,1.9,3.7,4
				C640.4,1065.9,638.7,1067.5,636.7,1067.5z"/>
		</g>
	</g>
</g>
<g id="colors" class="st0">
</g>
</svg>
