<?xml version="1.0" encoding="utf-8"?>
<!-- Generator: Adobe Illustrator 20.0.0, SVG Export Plug-In . SVG Version: 6.00 Build 0)  -->
<svg version="1.1" xmlns="http://www.w3.org/2000/svg" xmlns:xlink="http://www.w3.org/1999/xlink" x="0px" y="0px"
	 viewBox="0 0 1440 1440" style="enable-background:new 0 0 1440 1440;" xml:space="preserve">
<style type="text/css">
	.st0{display:none;}
	.st1{display:inline;}
	.st2{fill:#FFFFFF;}
	.st3{display:inline;clip-path:url(#SVGID_2_);}
	.st4{opacity:0.31;}
	.st5{fill:#59595C;}
	.st6{fill:#C05F68;}
	.st7{display:inline;fill:#59595C;}
	.st8{fill:#BF5F68;}
	.st9{fill:#8CC23F;stroke:#59595C;stroke-width:4;stroke-linecap:round;stroke-linejoin:round;stroke-miterlimit:10;}
	.st10{fill:none;stroke:#B0B7C0;stroke-linecap:round;stroke-linejoin:round;}
	.st11{fill:none;stroke:#B0B7C0;stroke-linecap:round;stroke-linejoin:round;stroke-dasharray:3.0008,6.0015;}
	.st12{fill:#FFFFFF;stroke:#B0B7C0;stroke-width:3;stroke-linecap:round;stroke-linejoin:round;stroke-miterlimit:10;}
	.st13{fill:none;stroke:#59595C;stroke-width:4;stroke-linecap:round;stroke-linejoin:round;stroke-miterlimit:10;}
	.st14{fill:#8CC03F;}
	.st15{fill:#8CC23F;}
	.st16{display:inline;fill:#6EC5AB;}
	.st17{display:inline;fill:#59595C;stroke:#59595C;stroke-width:3;stroke-miterlimit:10;}
	.st18{display:inline;fill:#6C96A1;}
	.st19{display:inline;fill:#C05F68;}
</style>
<g id="Toolbox" class="st0">
</g>
<g id="Industries" class="st0">
</g>
<g id="Footer" class="st0">
</g>
<g id="RBM_World" class="st0">
</g>
<g id="Editions" class="st0">
</g>
<g id="_x39__Keys">
	<path class="st12" d="M1278.7,187.9c-8.5,0-16.7,1.3-24.4,3.6C1241.1,128.4,1185,81,1117.8,81c-50.2,0-94.1,26.5-118.7,66.2
		c-6.7-1.3-13.7-2.1-20.8-2.1C919,145.1,871,193,871,252c0,59,48,106.9,107.3,106.9c24.3,0,46.7-8.1,64.7-21.8
		c21.6,13.7,47.2,21.8,74.8,21.8c35.3,0,67.4-13.1,92-34.7c15.6,21,40.6,34.7,68.9,34.7c47.4,0,85.8-38.3,85.8-85.5
		C1364.6,226.2,1326.1,187.9,1278.7,187.9z"/>
	<g>
		<g>
			<g>
				<g>
					<path class="st2" d="M1026.4,720c0,216.1-175.2,391.4-391.4,391.4c-216.2,0-391.4-175.2-391.4-391.4
						c0-216.2,175.2-391.4,391.4-391.4C851.2,328.6,1026.4,503.8,1026.4,720z"/>
					<path class="st5" d="M635.1,1114.9c-105.5,0-204.7-41.1-279.3-115.7C281.2,924.7,240.1,825.5,240.1,720
						c0-105.5,41.1-204.7,115.7-279.3c74.6-74.6,173.8-115.7,279.3-115.7c105.5,0,204.7,41.1,279.3,115.7
						C988.9,515.3,1030,614.5,1030,720c0,105.5-41.1,204.7-115.7,279.2C839.7,1073.8,740.5,1114.9,635.1,1114.9z M635.1,332.2
						c-103.6,0-201,40.3-274.3,113.6C287.6,519,247.2,616.4,247.2,720c0,103.6,40.3,201,113.6,274.2
						c73.3,73.3,170.6,113.6,274.3,113.6c103.6,0,201-40.3,274.3-113.6c73.3-73.3,113.6-170.6,113.6-274.2
						c0-103.6-40.3-201-113.6-274.3S738.7,332.2,635.1,332.2z"/>
				</g>
			</g>
		</g>
		<g id="cameraman_4_">
			<g id="camera_man_4_">
				<g id="XMLID_4_">
					<g>
						<path class="st5" d="M576,834.1c-0.7,0-1.5-0.2-2.1-0.7c-30.2-22.3-51.3-67.9-51.3-111v-93.2c0-1.8,1.4-3.4,3.2-3.5l268.1-22
							c1-0.1,2,0.3,2.7,0.9c0.7,0.7,1.1,1.6,1.1,2.6v100.6c0,68.5-55.7,124.2-124.2,124.2h-94.4c-0.1,0.2-0.2,0.4-0.4,0.6
							C578.1,833.6,577,834.1,576,834.1z M529.7,632.5v89.9c0,39.4,18.4,81,45.1,102.8c0.4-0.1,0.8-0.2,1.2-0.2h97.6
							c64.6,0,117.1-52.5,117.1-117.1v-96.8L529.7,632.5z"/>
					</g>
				</g>
				<g>
					<path class="st2" d="M571.8,755.9c0,0,18.9-89.6,36.8-132.9c0,0,226.9,52.6,226.9-113.9c0,0-31.5,22.6-84.1,6.8
						c-162.7-48.9-221.1-6-219.1,36.3c0,0-51.9,13.3-52.7,111.2C478.7,770.3,571.8,755.9,571.8,755.9z"/>
					<path class="st5" d="M561,760.1L561,760.1c-14.2,0-40.8-3-60.5-22.8c-16.5-16.6-24.7-41.5-24.4-73.9
						c0.7-87.8,41.5-109.4,52.7-113.7c0.1-12.1,4.8-23.4,13.7-32.7c11.5-12,35.4-26.4,84.3-26.4c35,0,77.2,7.4,125.6,21.9
						c12.1,3.6,24,5.5,35.4,5.5c28.7,0,45.4-11.6,45.6-11.7c1.1-0.8,2.5-0.9,3.7-0.3c1.2,0.6,1.9,1.8,1.9,3.1
						c0,46.9-17.7,81.3-52.6,102.2c-25.6,15.3-60,23.1-102.1,23.1c-34.6,0-64.3-5.5-73.6-7.4c-17.3,43.4-35.3,128.6-35.5,129.5
						c-0.3,1.4-1.5,2.5-2.9,2.8C572.1,759.4,567.8,760.1,561,760.1z M626.8,497.7c-46.4,0-68.7,13.1-79.2,24.2
						c-8.2,8.6-12.2,19-11.7,30.2c0.1,1.7-1,3.2-2.7,3.6c-0.5,0.1-49.3,14.1-50.1,107.8c-0.3,30.5,7.3,53.6,22.3,68.8
						c17.9,18,42.4,20.7,55.5,20.7h0c3.4,0,6.1-0.2,7.9-0.3c3.2-14.8,20.3-92,36.5-131c0.7-1.6,2.4-2.5,4.1-2.1
						c0.3,0.1,34.2,7.8,75,7.8c65.9,0,144.2-19.6,147.5-112c-7.6,3.9-22.7,9.7-44,9.7c-12.1,0-24.8-1.9-37.5-5.8
						C702.6,505,661.1,497.7,626.8,497.7z"/>
				</g>
				<g>
					<path class="st2" d="M605.3,543.7c-25.8,10.7-29.2,27.9-67.5,3.3"/>
					<path class="st5" d="M569.1,563.1c-8.3,0-18.3-3.6-33.1-13.1c-1.6-1.1-2.1-3.2-1.1-4.9c1.1-1.6,3.2-2.1,4.9-1.1
						c27.2,17.4,34.6,13,48.1,4.9c4.5-2.7,9.6-5.8,16.1-8.5c1.8-0.7,3.9,0.1,4.6,1.9c0.7,1.8-0.1,3.9-1.9,4.6
						c-6,2.5-10.9,5.4-15.2,8C583.7,559.6,577.2,563.1,569.1,563.1z"/>
				</g>
				<g>
					<path class="st5" d="M638.7,963.4c-1,0-2-0.5-2.7-1.2l-61.3-71.9c-0.5-0.6-0.8-1.4-0.8-2.2l-1.8-54.4c-0.1-2,1.5-3.6,3.4-3.6
						c2-0.1,3.6,1.5,3.6,3.4l1.7,53.1l57.6,67.6l56.1-73.8v-52.2c0-2,1.6-3.5,3.5-3.5s3.5,1.6,3.5,3.5v53.4c0,0.8-0.3,1.5-0.7,2.1
						L641.5,962C640.9,962.9,639.9,963.4,638.7,963.4C638.8,963.4,638.7,963.4,638.7,963.4z"/>
				</g>
				<g>
					<path class="st5" d="M394.5,1031c-0.3,0-0.6,0-0.9-0.1c-1.9-0.5-3-2.4-2.5-4.3c0.1-0.3,7.3-28.3,16.6-58.2
						c12.7-40.6,23-65.1,30.9-72.9c17.3-17.3,96.9-14.5,105.9-14.1l26.9,0.8c0.4,0,0.8,0.1,1.2,0.2l6,2.3c0.6,0.2,1,0.6,1.4,1
						l58.5,68.6l53.7-70.2l2.4-3.5c1.1-1.6,3.3-2,4.9-0.9c1.6,1.1,2,3.3,0.9,4.9l-2.5,3.6c0,0.1-0.1,0.1-0.1,0.2L641.5,962
						c-0.6,0.8-1.6,1.4-2.7,1.4c-1,0-2.1-0.4-2.8-1.2l-60.7-71.2l-4.6-1.8l-26.4-0.8c-23.7-1-87.9-0.7-100.7,12
						c-14.1,14.1-37.7,97.1-45.6,127.9C397.6,1029.9,396.1,1031,394.5,1031z"/>
				</g>
				<g>
					<line class="st14" x1="790" y1="1033.1" x2="791.3" y2="1078.6"/>
					<path class="st5" d="M791.3,1082.1c-1.9,0-3.5-1.5-3.5-3.4l-1.2-45.5c-0.1-2,1.5-3.6,3.4-3.6c0,0,0.1,0,0.1,0
						c1.9,0,3.5,1.5,3.5,3.4l1.2,45.5C794.8,1080.4,793.3,1082.1,791.3,1082.1C791.3,1082.1,791.3,1082.1,791.3,1082.1z"/>
				</g>
				<g>
					<line class="st14" x1="476.7" y1="1033.1" x2="477.9" y2="1075.5"/>
					<path class="st5" d="M477.9,1079c-1.9,0-3.5-1.5-3.5-3.4l-1.2-42.4c-0.1-2,1.5-3.6,3.4-3.6c0,0,0.1,0,0.1,0
						c1.9,0,3.5,1.5,3.5,3.4l1.2,42.4c0.1,2-1.5,3.6-3.4,3.6C478,1079,477.9,1079,477.9,1079z"/>
				</g>
			</g>
			<g>
				<path class="st5" d="M891.9,1008.8c-1.6,0-3-1-3.4-2.6c-0.2-0.8-22.5-84.8-39.5-101.8c-12.8-12.8-77.1-15.8-100.8-15.8
					l-46.5-0.3c-2,0-3.5-1.6-3.5-3.6c0-2,1.7-3.6,3.6-3.5l46.4,0.3c0.2,0,22.1,0.1,45.7,2.2c32.4,2.9,52.6,8.2,60.1,15.7
					c18.4,18.4,40.4,101.5,41.4,105c0.5,1.9-0.6,3.8-2.5,4.3C892.5,1008.8,892.2,1008.8,891.9,1008.8z"/>
			</g>
		</g>
		<g>
			<path class="st2" d="M1266.9,720c0,99.9-81,180.8-180.8,180.8c-99.9,0-180.8-81-180.8-180.8c0-99.9,81-180.8,180.8-180.8
				C1186,539.2,1266.9,620.1,1266.9,720z"/>
			<path class="st5" d="M1086.1,904.4c-101.7,0-184.4-82.7-184.4-184.4c0-101.7,82.7-184.4,184.4-184.4s184.4,82.7,184.4,184.4
				C1270.5,821.7,1187.8,904.4,1086.1,904.4z M1086.1,542.7c-97.8,0-177.3,79.5-177.3,177.3c0,97.8,79.5,177.3,177.3,177.3
				s177.3-79.5,177.3-177.3C1263.4,622.2,1183.9,542.7,1086.1,542.7z"/>
		</g>
		<g>
			<path class="st8" d="M1352.6,723.5h-38.1c-2,0-3.5-1.6-3.5-3.5s1.6-3.5,3.5-3.5h38.1c2,0,3.5,1.6,3.5,3.5
				S1354.5,723.5,1352.6,723.5z"/>
		</g>
		<g>
			<path class="st8" d="M1086.1,495.1c-2,0-3.5-1.6-3.5-3.5v-38.1c0-2,1.6-3.5,3.5-3.5s3.5,1.6,3.5,3.5v38.1
				C1089.6,493.5,1088,495.1,1086.1,495.1z"/>
		</g>
		<g>
			<path class="st8" d="M857.7,723.5h-38.1c-2,0-3.5-1.6-3.5-3.5s1.6-3.5,3.5-3.5h38.1c2,0,3.5,1.6,3.5,3.5S859.6,723.5,857.7,723.5
				z"/>
		</g>
		<g>
			<path class="st8" d="M1086.1,990c-2,0-3.5-1.6-3.5-3.5v-38.1c0-2,1.6-3.5,3.5-3.5s3.5,1.6,3.5,3.5v38.1
				C1089.6,988.4,1088,990,1086.1,990z"/>
		</g>
		<g>
			<line class="st15" x1="1247.6" y1="558.5" x2="1274.5" y2="531.6"/>
			<path class="st8" d="M1247.6,562c-0.9,0-1.8-0.3-2.5-1c-1.4-1.4-1.4-3.6,0-5l26.9-26.9c1.4-1.4,3.6-1.4,5,0c1.4,1.4,1.4,3.6,0,5
				l-26.9,26.9C1249.4,561.7,1248.5,562,1247.6,562z"/>
		</g>
		<g>
			<line class="st15" x1="924.6" y1="558.5" x2="897.7" y2="531.6"/>
			<path class="st8" d="M924.6,562c-0.9,0-1.8-0.3-2.5-1l-26.9-26.9c-1.4-1.4-1.4-3.6,0-5c1.4-1.4,3.6-1.4,5,0l26.9,26.9
				c1.4,1.4,1.4,3.6,0,5C926.4,561.7,925.5,562,924.6,562z"/>
		</g>
		<g>
			<line class="st15" x1="924.6" y1="881.5" x2="897.7" y2="908.4"/>
			<path class="st8" d="M897.7,912c-0.9,0-1.8-0.3-2.5-1c-1.4-1.4-1.4-3.6,0-5l26.9-26.9c1.4-1.4,3.6-1.4,5,0c1.4,1.4,1.4,3.6,0,5
				l-26.9,26.9C899.5,911.6,898.6,912,897.7,912z"/>
		</g>
		<g>
			<line class="st15" x1="1247.6" y1="881.5" x2="1274.5" y2="908.4"/>
			<path class="st8" d="M1274.5,912c-0.9,0-1.8-0.3-2.5-1l-26.9-26.9c-1.4-1.4-1.4-3.6,0-5c1.4-1.4,3.6-1.4,5,0l26.9,26.9
				c1.4,1.4,1.4,3.6,0,5C1276.3,911.6,1275.4,912,1274.5,912z"/>
		</g>
		<g>
			<path class="st2" d="M332.3,642.8c-19.6,13.1-29.6,38,0,58c16.3,40.6,46.6,31.7,64.4,12.9c17.9-18.9,26.1-74.3,12.9-103.1
				C381,632.1,356.7,626.5,332.3,642.8z"/>
			<path class="st8" d="M365.1,733.1L365.1,733.1c-10.7,0-25.5-5.2-35.7-30c-16-11.1-19.3-22.9-19.3-30.9c0-11.8,7.6-23.9,20.2-32.4
				c11.6-7.7,23.4-10.8,34.8-13.7c13.4-3.5,27.4-7.1,42.3-18.4c0.9-0.6,1.9-0.9,3-0.6c1,0.3,1.9,1,2.3,2
				c13.4,29.2,6.2,86.2-13.5,107C389.1,726.9,376.6,733.1,365.1,733.1z M408,616.1c-14.7,10.1-28.1,13.5-41.1,16.9
				c-11.3,2.9-22,5.7-32.7,12.8c-10.7,7.1-17,17-17.1,26.5c0,9.2,5.9,18.1,17.1,25.6c0.6,0.4,1,1,1.3,1.6
				c7,17.4,17.2,26.5,29.5,26.5c9.6,0,20.1-5.4,29.1-14.8C409.5,695.1,418.5,645,408,616.1z"/>
		</g>
		<g>
			<path class="st2" d="M280.7,584.8c21,24.8,30.8,61.9-19.3,83.8c-23,51.2-60.5,33.8-83.8,6.4c-23.2-27.4-33.3-103.1-12.9-141.8
				C202.5,565.1,254.5,553.8,280.7,584.8z"/>
			<path class="st8" d="M222.7,704.9c-15.5,0-32.9-10.1-47.8-27.6c-23.8-28-34.7-105.2-13.3-145.7c0.5-0.9,1.4-1.6,2.5-1.8
				c1-0.2,2.1,0.1,3,0.8c17.9,15.1,39.1,20.2,59.6,25.1c21.9,5.2,42.6,10.2,56.8,26.9c8.5,10,21.9,29.9,16.9,51.6
				c-3.6,15.4-15.8,27.9-36.3,37.2C256.8,686.9,243.9,704.9,222.7,704.9z M166,538.8c-17.3,38.6-6.9,108.9,14.3,133.9
				c13.6,16,29,25.2,42.4,25.2c14.4,0,26.3-10.3,35.5-30.8c0.4-0.8,1-1.4,1.8-1.8c19.1-8.3,30.4-19.4,33.5-32.8
				c3.2-13.6-2.5-30.2-15.4-45.4c-12.6-14.9-32.3-19.6-53-24.6C205,557.7,184.3,552.8,166,538.8z"/>
		</g>
		<g>
			<path class="st5" d="M300.1,762.3c-0.1,0-0.1,0-0.2,0c-1.6-0.1-2.9-1.2-3.3-2.7c-0.2-0.9-22.6-94.2-102-165.7
				c-1.5-1.3-1.6-3.5-0.3-5c1.3-1.5,3.5-1.6,5-0.3c65.5,58.9,93,132.4,101.3,159.1c2.9-6.7,7.4-16.3,13.6-26.7
				c10.8-18.2,29.2-42.6,55.2-55.6c1.8-0.9,3.9-0.2,4.7,1.6c0.9,1.7,0.2,3.9-1.6,4.7c-46.9,23.5-68.9,87.5-69.1,88.2
				C302.9,761.4,301.6,762.3,300.1,762.3z"/>
		</g>
		<g>
			<g>
				<rect x="87.4" y="765.2" class="st2" width="64.4" height="116"/>
				<path class="st5" d="M151.9,884.8H87.4c-2,0-3.5-1.6-3.5-3.5v-116c0-2,1.6-3.5,3.5-3.5h64.4c2,0,3.5,1.6,3.5,3.5v116
					C155.4,883.2,153.8,884.8,151.9,884.8z M91,877.7h57.4V768.8H91V877.7z"/>
			</g>
			<g>
				<path class="st2" d="M151.9,867.3c169.5,56.5,115.6,59.2,309.3-37.7c-17.2-17.2-30.7-23.9-48.4-18.8L343,834"/>
				<path class="st5" d="M286.3,910.2c-21.4,0-44.4-7.9-85-22.1c-14.5-5.1-31-10.8-50.5-17.4c-1.9-0.6-2.9-2.6-2.2-4.5
					c0.6-1.9,2.6-2.9,4.5-2.2c19.6,6.5,36.1,12.3,50.6,17.4c89.8,31.4,89.8,31.4,184.1-18c18.1-9.5,40.4-21.2,67.4-34.7
					c-15.6-14.7-27.2-18.6-41.4-14.5l-69.6,23.1c-1.9,0.6-3.9-0.4-4.5-2.2c-0.6-1.9,0.4-3.9,2.2-4.5l69.7-23.1
					c20.9-6,35.9,3.5,52,19.7c0.8,0.8,1.2,1.9,1,3.1c-0.2,1.1-0.9,2.1-1.9,2.6c-28.9,14.4-52.6,26.9-71.7,36.9
					C337.5,897.7,313.2,910.2,286.3,910.2z"/>
			</g>
			<g>
				<path class="st2" d="M151.9,778.1h51.6c38,0,62.8,19.3,70.9,25.7c21.5,0.2,23.2,0,51.6,0c25.6,0,25.6,38.8,0,38.8h-90.2"/>
				<path class="st5" d="M325.8,846.1h-90.2c-2,0-3.5-1.6-3.5-3.5s1.6-3.5,3.5-3.5h90.2c10.8,0,15.7-8,15.7-15.8
					c0-7.9-4.8-15.8-15.7-15.8c-11.2,0-18.2,0-24,0.1c-8.8,0-14.6,0.1-27.6-0.1c-0.8,0-1.6-0.3-2.2-0.8
					c-20.8-16.5-43.9-24.9-68.7-24.9h-51.6c-2,0-3.5-1.6-3.5-3.5s1.6-3.5,3.5-3.5h51.6c26,0,50.3,8.6,72.1,25.7
					c12.1,0.1,17.8,0.1,26.3,0c5.7,0,12.8-0.1,24-0.1c14.9,0,22.7,11.5,22.7,22.9C348.6,834.6,340.8,846.1,325.8,846.1z"/>
			</g>
		</g>
	</g>
</g>
<g id="colors" class="st0">
</g>
</svg>
