<?xml version="1.0" encoding="utf-8"?>
<!-- Generator: Adobe Illustrator 20.0.0, SVG Export Plug-In . SVG Version: 6.00 Build 0)  -->
<svg version="1.1" xmlns="http://www.w3.org/2000/svg" xmlns:xlink="http://www.w3.org/1999/xlink" x="0px" y="0px"
	 viewBox="0 0 1440 1440" style="enable-background:new 0 0 1440 1440;" xml:space="preserve">
<style type="text/css">
	.st0{display:none;}
	.st1{display:inline;}
	.st2{fill:#FFFFFF;}
	.st3{display:inline;clip-path:url(#SVGID_2_);}
	.st4{opacity:0.31;}
	.st5{fill:#59595C;}
	.st6{fill:#C05F68;}
	.st7{display:inline;fill:#59595C;}
	.st8{fill:#BF5F68;}
	.st9{fill:#8CC23F;stroke:#59595C;stroke-width:4;stroke-linecap:round;stroke-linejoin:round;stroke-miterlimit:10;}
	.st10{fill:none;stroke:#B0B7C0;stroke-linecap:round;stroke-linejoin:round;}
	.st11{fill:none;stroke:#B0B7C0;stroke-linecap:round;stroke-linejoin:round;stroke-dasharray:3.0008,6.0015;}
	.st12{fill:#FFFFFF;stroke:#B0B7C0;stroke-width:3;stroke-linecap:round;stroke-linejoin:round;stroke-miterlimit:10;}
	.st13{fill:none;stroke:#59595C;stroke-width:4;stroke-linecap:round;stroke-linejoin:round;stroke-miterlimit:10;}
	.st14{fill:#8CC03F;}
	.st15{fill:#8CC23F;}
	.st16{display:inline;fill:#6EC5AB;}
	.st17{display:inline;fill:#59595C;stroke:#59595C;stroke-width:3;stroke-miterlimit:10;}
	.st18{display:inline;fill:#6C96A1;}
	.st19{display:inline;fill:#C05F68;}
</style>
<g id="Toolbox" class="st0">
</g>
<g id="Industries" class="st0">
</g>
<g id="Footer" class="st0">
</g>
<g id="RBM_World" class="st0">
</g>
<g id="Editions" class="st0">
</g>
<g id="_x39__Keys">
	<g>
		<g>
			<path class="st5" d="M804.5,637c-0.4,0-0.8-0.1-1.2-0.2c-2-0.6-3.2-2.8-2.5-4.8l47.5-152c3.3-10.7,10.7-17.9,20.7-20.2
				c10.3-2.3,21.5,1.2,28.6,8.9c6.9,7.5,8.9,17.6,5.6,28.3l-15.3,49.2c-0.6,2-2.8,3.2-4.8,2.5c-2-0.6-3.2-2.8-2.5-4.8l15.3-49.2
				c2.5-8,1.1-15.4-3.9-20.8c-5.2-5.7-13.8-8.3-21.3-6.6c-7.2,1.6-12.5,6.9-15,14.9l-47.5,152C807.6,635.9,806.1,637,804.5,637z"/>
		</g>
		<g>
			<g>
				<path class="st5" d="M736.6,1261c-4.9,0-9.7-0.8-14.4-2.4c-20.7-7.1-37.8-30.5-26.2-65.1l204.2-628.4c0.7-2,2.8-3.1,4.9-2.5
					c2,0.7,3.1,2.8,2.5,4.9l-204.2,628.4c-6.9,20.8-3.2,47,21.4,55.4c18.3,6.2,43.1-1.6,54.3-33.7l329.5-1035.9
					c0.6-2,2.8-3.2,4.8-2.5c2,0.6,3.2,2.8,2.5,4.8L786.2,1220c-5.8,16.6-15.5,28.8-28.1,35.5C751.3,1259.2,744,1261,736.6,1261z"/>
			</g>
			<g>
				<path class="st8" d="M1206.8,369.3c-1.4,0-2.7-0.8-3.4-2.1l-92.9-179.2L931.3,281c-1.9,1-4.2,0.2-5.2-1.6
					c-1-1.9-0.2-4.2,1.6-5.2l182.6-94.7c0.9-0.5,2-0.6,2.9-0.3c1,0.3,1.8,1,2.3,1.9l94.7,182.6c1,1.9,0.2,4.2-1.6,5.2
					C1208,369.2,1207.4,369.3,1206.8,369.3z"/>
			</g>
		</g>
		<g>
			<g>
				<rect x="605.4" y="548" class="st2" width="494.5" height="494.5"/>
				<path class="st5" d="M1100,1046.4H605.4c-2.1,0-3.9-1.7-3.9-3.9V548c0-2.1,1.7-3.9,3.9-3.9H1100c2.1,0,3.9,1.7,3.9,3.9v494.5
					C1103.8,1044.7,1102.1,1046.4,1100,1046.4z M609.3,1038.7h486.8V551.9H609.3V1038.7z"/>
			</g>
			<g>
				<path class="st5" d="M861.2,852.9c-2.1,0-3.9-1.7-3.9-3.9V701.5c0-2.1,1.7-3.9,3.9-3.9s3.9,1.7,3.9,3.9V849
					C865.1,851.2,863.4,852.9,861.2,852.9z"/>
			</g>
			<g>
				<path class="st5" d="M963.5,852.9c-2.1,0-3.9-1.7-3.9-3.9v-45.2c0-2.1,1.7-3.9,3.9-3.9s3.9,1.7,3.9,3.9V849
					C967.4,851.2,965.7,852.9,963.5,852.9z"/>
			</g>
			<g>
				<path class="st5" d="M741.9,739.5c-2.1,0-3.9-1.7-3.9-3.9V612.5c0-2.1,1.7-3.9,3.9-3.9s3.9,1.7,3.9,3.9v123.1
					C745.7,737.7,744,739.5,741.9,739.5z"/>
			</g>
			<g>
				<path class="st5" d="M741.9,852.9c-2.1,0-3.9-1.7-3.9-3.9v-79.3c0-2.1,1.7-3.9,3.9-3.9s3.9,1.7,3.9,3.9V849
					C745.7,851.2,744,852.9,741.9,852.9z"/>
			</g>
			<g>
				<path class="st5" d="M963.5,773.6c-2.1,0-3.9-1.7-3.9-3.9V612.5c0-2.1,1.7-3.9,3.9-3.9s3.9,1.7,3.9,3.9v157.2
					C967.4,771.8,965.7,773.6,963.5,773.6z"/>
			</g>
			<g>
				<path class="st5" d="M861.2,671.3c-2.1,0-3.9-1.7-3.9-3.9v-54.9c0-2.1,1.7-3.9,3.9-3.9s3.9,1.7,3.9,3.9v54.9
					C865.1,669.5,863.4,671.3,861.2,671.3z"/>
			</g>
			<g>
				<rect x="929.4" y="769.7" class="st2" width="68.2" height="34.1"/>
				<path class="st8" d="M997.6,807.7h-68.2c-2.1,0-3.9-1.7-3.9-3.9v-34.1c0-2.1,1.7-3.9,3.9-3.9h68.2c2.1,0,3.9,1.7,3.9,3.9v34.1
					C1001.5,805.9,999.8,807.7,997.6,807.7z M933.3,800h60.5v-26.4h-60.5V800z"/>
			</g>
			<g>
				<rect x="827.1" y="667.4" class="st2" width="68.2" height="34.1"/>
				<path class="st5" d="M895.3,705.4h-68.2c-2.1,0-3.9-1.7-3.9-3.9v-34.1c0-2.1,1.7-3.9,3.9-3.9h68.2c2.1,0,3.9,1.7,3.9,3.9v34.1
					C899.2,703.6,897.5,705.4,895.3,705.4z M831,697.6h60.5v-26.4H831V697.6z"/>
			</g>
			<g>
				<rect x="707.8" y="735.6" class="st2" width="68.2" height="34.1"/>
				<path class="st5" d="M776,773.6h-68.2c-2.1,0-3.9-1.7-3.9-3.9v-34.1c0-2.1,1.7-3.9,3.9-3.9H776c2.1,0,3.9,1.7,3.9,3.9v34.1
					C779.8,771.8,778.1,773.6,776,773.6z M711.6,765.9h60.5v-26.4h-60.5V765.9z"/>
			</g>
			<g>
				<path class="st2" d="M929.4,940.2c0-18.8,15.3-34.1,34.1-34.1c18.8,0,34.1,15.3,34.1,34.1c0,18.9-15.3,34.1-34.1,34.1
					C944.7,974.3,929.4,959.1,929.4,940.2z"/>
				<path class="st5" d="M963.5,978.2c-20.9,0-38-17-38-38c0-20.9,17-38,38-38s38,17,38,38C1001.5,961.2,984.5,978.2,963.5,978.2z
					 M963.5,910c-16.7,0-30.2,13.6-30.2,30.2c0,16.7,13.6,30.2,30.2,30.2c16.7,0,30.2-13.6,30.2-30.2
					C993.8,923.5,980.2,910,963.5,910z"/>
			</g>
			<g>
				<path class="st2" d="M827.1,940.2c0-18.8,15.3-34.1,34.1-34.1c18.8,0,34.1,15.3,34.1,34.1c0,18.9-15.3,34.1-34.1,34.1
					C842.4,974.3,827.1,959.1,827.1,940.2z"/>
				<path class="st8" d="M861.2,978.2c-20.9,0-38-17-38-38c0-20.9,17-38,38-38s38,17,38,38C899.2,961.2,882.2,978.2,861.2,978.2z
					 M861.2,910c-16.7,0-30.2,13.6-30.2,30.2c0,16.7,13.6,30.2,30.2,30.2c16.7,0,30.2-13.6,30.2-30.2
					C891.5,923.5,877.9,910,861.2,910z"/>
			</g>
			<g>
				<path class="st2" d="M707.8,940.2c0-18.8,15.3-34.1,34.1-34.1c18.8,0,34.1,15.3,34.1,34.1c0,18.9-15.3,34.1-34.1,34.1
					C723,974.3,707.8,959.1,707.8,940.2z"/>
				<path class="st5" d="M741.9,978.2c-20.9,0-38-17-38-38c0-20.9,17-38,38-38s38,17,38,38C779.8,961.2,762.8,978.2,741.9,978.2z
					 M741.9,910c-16.7,0-30.2,13.6-30.2,30.2c0,16.7,13.6,30.2,30.2,30.2s30.2-13.6,30.2-30.2C772.1,923.5,758.5,910,741.9,910z"/>
			</g>
		</g>
		<g>
			<g>
				<path class="st2" d="M671.7,925.1c0,121.1-98.2,219.2-219.2,219.2c-121.1,0-219.2-98.2-219.2-219.2
					c0-121.1,98.2-219.2,219.2-219.2C573.5,705.8,671.7,804,671.7,925.1z"/>
				<path class="st5" d="M452.5,1148.2c-123,0-223.1-100.1-223.1-223.1c0-123,100.1-223.1,223.1-223.1s223.1,100.1,223.1,223.1
					C675.5,1048.1,575.5,1148.2,452.5,1148.2z M452.5,709.7c-118.8,0-215.4,96.6-215.4,215.4c0,118.8,96.6,215.4,215.4,215.4
					s215.4-96.6,215.4-215.4C667.8,806.3,571.2,709.7,452.5,709.7z"/>
			</g>
			<g>
				<path class="st8" d="M475.9,905.5c-1,0-2-0.4-2.7-1.1c-1.5-1.5-1.5-3.9,0-5.5l86.1-86.1c1.5-1.5,3.9-1.5,5.5,0
					c1.5,1.5,1.5,3.9,0,5.5l-86.1,86.1C477.9,905.1,476.9,905.5,475.9,905.5z"/>
			</g>
			<g>
				<path class="st5" d="M311.5,928.9h-31.3c-2.1,0-3.9-1.7-3.9-3.9s1.7-3.9,3.9-3.9h31.3c2.1,0,3.9,1.7,3.9,3.9
					S313.6,928.9,311.5,928.9z"/>
			</g>
			<g>
				<path class="st5" d="M322.2,875c-0.5,0-1-0.1-1.5-0.3l-28.9-12c-2-0.8-2.9-3.1-2.1-5c0.8-2,3.1-2.9,5-2.1l28.9,12
					c2,0.8,2.9,3.1,2.1,5C325.2,874.1,323.8,875,322.2,875z"/>
			</g>
			<g>
				<path class="st5" d="M352.8,829.3c-1,0-2-0.4-2.7-1.1L327.9,806c-1.5-1.5-1.5-3.9,0-5.5c1.5-1.5,3.9-1.5,5.5,0l22.1,22.2
					c1.5,1.5,1.5,3.9,0,5.5C354.8,828.9,353.8,829.3,352.8,829.3z"/>
			</g>
			<g>
				<path class="st5" d="M398.5,798.7c-1.5,0-3-0.9-3.6-2.4l-12-28.9c-0.8-2,0.1-4.2,2.1-5c2-0.8,4.2,0.1,5,2.1l12,28.9
					c0.8,2-0.1,4.2-2.1,5C399.5,798.7,399,798.7,398.5,798.7z"/>
			</g>
			<g>
				<path class="st5" d="M452.4,788L452.4,788c-2.1,0-3.9-1.7-3.9-3.9l0-31.3c0-2.1,1.7-3.9,3.9-3.9h0c2.1,0,3.9,1.7,3.9,3.9l0,31.3
					C456.3,786.3,454.6,788,452.4,788z"/>
			</g>
			<g>
				<path class="st5" d="M506.4,798.7c-0.5,0-1-0.1-1.5-0.3c-2-0.8-2.9-3.1-2.1-5l12-28.9c0.8-2,3.1-2.9,5-2.1c2,0.8,2.9,3.1,2.1,5
					l-12,28.9C509.3,797.9,507.9,798.7,506.4,798.7z"/>
			</g>
			<g>
				<path class="st5" d="M582.7,875c-1.5,0-3-0.9-3.6-2.4c-0.8-2,0.1-4.2,2.1-5l28.9-12c2-0.8,4.2,0.1,5,2.1c0.8,2-0.1,4.2-2.1,5
					l-28.9,12C583.6,874.9,583.1,875,582.7,875z"/>
			</g>
			<g>
				<path class="st5" d="M624.7,929L624.7,929l-31.3,0c-2.1,0-3.9-1.7-3.9-3.9c0-2.1,1.7-3.9,3.9-3.9h0l31.3,0
					c2.1,0,3.9,1.7,3.9,3.9C628.6,927.2,626.8,929,624.7,929z"/>
			</g>
			<g>
				<path class="st5" d="M611.6,994.9c-0.5,0-1-0.1-1.5-0.3l-28.9-12c-2-0.8-2.9-3.1-2.1-5c0.8-2,3.1-2.9,5-2.1l28.9,12
					c2,0.8,2.9,3.1,2.1,5C614.5,994,613.1,994.9,611.6,994.9z"/>
			</g>
			<g>
				<path class="st5" d="M293.3,994.9c-1.5,0-2.9-0.9-3.6-2.4c-0.8-2,0.1-4.2,2.1-5l28.9-12c2-0.8,4.2,0.1,5,2.1
					c0.8,2-0.1,4.2-2.1,5l-28.9,12C294.3,994.8,293.8,994.9,293.3,994.9z"/>
			</g>
			<g>
				<path class="st5" d="M530.8,1069.9H374.2c-2.1,0-3.9-1.7-3.9-3.9v-47c0-2.1,1.7-3.9,3.9-3.9h156.6c2.1,0,3.9,1.7,3.9,3.9v47
					C534.6,1068.2,532.9,1069.9,530.8,1069.9z M378,1062.2h148.9v-39.3H378V1062.2z"/>
			</g>
			<g>
				<path class="st8" d="M452.5,960.3c-19.4,0-35.2-15.8-35.2-35.2c0-19.4,15.8-35.2,35.2-35.2s35.2,15.8,35.2,35.2
					C487.6,944.5,471.8,960.3,452.5,960.3z M452.5,897.6c-15.1,0-27.5,12.3-27.5,27.5c0,15.1,12.3,27.5,27.5,27.5
					c15.1,0,27.5-12.3,27.5-27.5C479.9,909.9,467.6,897.6,452.5,897.6z"/>
			</g>
		</g>
	</g>
	<path class="st12" d="M596.3,235.5c-10.2,0-20.1,1.6-29.4,4.3c-15.9-76-83.5-133.1-164.5-133.1c-60.5,0-113.4,32-143,79.8
		c-8.1-1.6-16.5-2.5-25.1-2.5C162.9,184,105,241.7,105,312.8c0,71.1,57.9,128.8,129.3,128.8c29.3,0,56.3-9.8,78-26.2
		c26,16.5,56.9,26.2,90.1,26.2c42.5,0,81.3-15.8,110.9-41.8c18.8,25.3,49,41.8,83.1,41.8c57.1,0,103.4-46.1,103.4-103
		C699.7,281.7,653.4,235.5,596.3,235.5z"/>
</g>
<g id="colors" class="st0">
</g>
</svg>
