<?xml version="1.0" encoding="utf-8"?>
<!-- Generator: Adobe Illustrator 20.0.0, SVG Export Plug-In . SVG Version: 6.00 Build 0)  -->
<svg version="1.1" xmlns="http://www.w3.org/2000/svg" xmlns:xlink="http://www.w3.org/1999/xlink" x="0px" y="0px"
	 viewBox="0 0 1440 1440" style="enable-background:new 0 0 1440 1440;" xml:space="preserve">
<style type="text/css">
	.st0{display:none;}
	.st1{display:inline;}
	.st2{fill:#FFFFFF;}
	.st3{display:inline;fill:none;}
	.st4{display:inline;fill:#FFFFFF;}
	.st5{font-family:'BrandonGrotesque-Bold';}
	.st6{font-size:100px;}
	.st7{display:inline;clip-path:url(#SVGID_2_);}
	.st8{opacity:0.31;}
	.st9{fill:#59595C;}
	.st10{fill:#C05F68;}
	.st11{display:inline;fill:#59595C;}
	.st12{fill:#BF5F68;}
	.st13{fill:#8CC23F;stroke:#59595C;stroke-width:4;stroke-linecap:round;stroke-linejoin:round;stroke-miterlimit:10;}
	.st14{fill:none;stroke:#B0B7C0;stroke-linecap:round;stroke-linejoin:round;}
	.st15{fill:none;stroke:#B0B7C0;stroke-linecap:round;stroke-linejoin:round;stroke-dasharray:3.0008,6.0015;}
	.st16{fill:#FFFFFF;stroke:#B0B7C0;stroke-width:3;stroke-linecap:round;stroke-linejoin:round;stroke-miterlimit:10;}
	.st17{fill:none;stroke:#59595C;stroke-width:4;stroke-linecap:round;stroke-linejoin:round;stroke-miterlimit:10;}
	.st18{fill:#8CC03F;}
	.st19{fill:#8CC23F;}
	.st20{display:inline;fill:#6EC5AB;}
	.st21{display:inline;fill:#59595C;stroke:#59595C;stroke-width:3;stroke-miterlimit:10;}
	.st22{display:inline;fill:#6C96A1;}
	.st23{display:inline;fill:#C05F68;}
</style>
<g id="Toolbox" class="st0">
</g>
<g id="Industries" class="st0">
	<rect x="153.9" y="1239" class="st3" width="838.4" height="113"/>
	<text transform="matrix(1 0 0 1 153.9199 1308.9995)" class="st4 st5 st6">Cloud Services</text>
</g>
<g id="Footer" class="st0">
</g>
<g id="RBM_World" class="st0">
</g>
<g id="Editions" class="st0">
</g>
<g id="_x39__Keys">
	<path class="st16" d="M659.3,1256.4c-6.4,0-12.6,1-18.4,2.7c-10-47.6-52.3-83.4-103-83.4c-37.9,0-71,20-89.6,50
		c-5.1-1-10.3-1.6-15.7-1.6c-44.7,0-81,36.1-81,80.7c0,44.6,36.2,80.6,81,80.6c18.4,0,35.3-6.1,48.8-16.4
		c16.3,10.4,35.6,16.4,56.4,16.4c26.6,0,50.9-9.9,69.5-26.2c11.8,15.9,30.7,26.2,52,26.2c35.8,0,64.8-28.9,64.8-64.5
		C724.1,1285.3,695.1,1256.4,659.3,1256.4z"/>
	<path class="st16" d="M1320.9,200.1c-9.4,0-18.6,1.5-27.2,4C1278.9,133.8,1216.4,81,1141.5,81c-56,0-104.9,29.6-132.3,73.8
		c-7.5-1.5-15.3-2.3-23.2-2.3c-66.1,0-119.6,53.4-119.6,119.2c0,65.8,53.5,119.1,119.6,119.1c27.1,0,52.1-9.1,72.2-24.3
		c24.1,15.3,52.7,24.3,83.4,24.3c39.4,0,75.2-14.7,102.6-38.7c17.4,23.4,45.3,38.7,76.8,38.7c52.9,0,95.7-42.7,95.7-95.3
		C1416.6,242.8,1373.8,200.1,1320.9,200.1z"/>
	<g>
		<g>
			<g>
				<path class="st9" d="M1118,943.9H588.6c-1.8,0-3.3-1.5-3.3-3.3V593.7c0-1.8,1.5-3.3,3.3-3.3H1118c1.8,0,3.3,1.5,3.3,3.3v346.9
					C1121.3,942.4,1119.8,943.9,1118,943.9z M591.9,937.3h522.8V597H591.9V937.3z"/>
			</g>
			<g>
				<path class="st9" d="M853.3,1016.9c-1.8,0-3.3-1.5-3.3-3.3v-73c0-1.8,1.5-3.3,3.3-3.3s3.3,1.5,3.3,3.3v73
					C856.6,1015.4,855.1,1016.9,853.3,1016.9z"/>
			</g>
			<g>
				<path class="st12" d="M816.8,825.2c-0.2,0-0.4,0-0.7-0.1c-1.1-0.2-2-1-2.4-2L775.4,729l-47.5,49.6c-0.6,0.6-1.5,1-2.4,1h-82.1
					c-1.8,0-3.3-1.5-3.3-3.3s1.5-3.3,3.3-3.3h80.7l50-52.2c0.8-0.8,1.9-1.2,3-1c1.1,0.2,2,1,2.4,2l38.5,94.3l60.4-60.4
					c1.2-1.2,3.4-1.2,4.6,0l43.1,43.1l79.8-97.6c1.1-1.4,3.2-1.6,4.6-0.5c1.4,1.1,1.6,3.2,0.5,4.6l-82.1,100.4
					c-0.6,0.7-1.5,1.2-2.4,1.2c-0.9,0-1.8-0.3-2.5-1l-43.3-43.3l-61.6,61.6C818.5,824.9,817.7,825.2,816.8,825.2z"/>
			</g>
			<g>
				<path class="st9" d="M1063.3,889.1H643.4c-1.8,0-3.3-1.5-3.3-3.3V648.5c0-1.8,1.5-3.3,3.3-3.3h419.9c1.8,0,3.3,1.5,3.3,3.3
					v237.3C1066.5,887.6,1065.1,889.1,1063.3,889.1z M646.7,882.5H1060V651.8H646.7V882.5z"/>
			</g>
			<g>
				<path class="st9" d="M743.8,1126.4c-0.8,0-1.7-0.3-2.3-1c-1.3-1.3-1.3-3.4,0-4.7L851,1011.3c1.2-1.2,3.4-1.2,4.6,0l109.5,109.5
					c1.3,1.3,1.3,3.4,0,4.6c-1.3,1.3-3.4,1.3-4.6,0l-107.2-107.2l-107.2,107.2C745.5,1126.1,744.6,1126.4,743.8,1126.4z"/>
			</g>
			<g>
				<path class="st9" d="M941.9,1141.1c-0.8,0-1.7-0.3-2.3-1l-86.2-86.3l-84.3,84.3c-1.3,1.3-3.4,1.3-4.6,0c-1.3-1.3-1.3-3.4,0-4.7
					l86.7-86.7c1.2-1.2,3.4-1.2,4.6,0l88.6,88.6c1.3,1.3,1.3,3.4,0,4.7C943.6,1140.8,942.7,1141.1,941.9,1141.1z"/>
			</g>
		</g>
		<g>
			<g>
				<path class="st12" d="M787.8,525.8H554.5c-1.8,0-3.3-1.5-3.3-3.3V289.2c0-1.8,1.5-3.3,3.3-3.3c130.5,0,236.6,106.1,236.6,236.6
					C791.1,524.3,789.6,525.8,787.8,525.8z M557.8,519.2h226.7C782.7,395,682,294.3,557.8,292.5V519.2z"/>
			</g>
			<g>
				<path class="st2" d="M500.6,576.3L500.6,576.3V343c-128.8,0-233.3,104.5-233.3,233.3c0,128.8,104.5,233.3,233.3,233.3
					c64.4,0,122.8-26.1,165-68.3L500.6,576.3z"/>
				<path class="st9" d="M500.6,812.9C370.2,812.9,264,706.8,264,576.3s106.1-236.6,236.6-236.6c1.8,0,3.3,1.5,3.3,3.3V575l164,164
					c1.3,1.3,1.3,3.4,0,4.6C623.2,788.3,563.8,812.9,500.6,812.9z M497.3,346.3c-125.3,1.8-226.7,104.3-226.7,230
					c0,126.8,103.2,230,230,230c60.3,0,117.1-23.1,160.3-65.1L498.3,578.7c-0.6-0.6-1-1.5-1-2.3V346.3z"/>
			</g>
			<g>
				<path class="st2" d="M719.4,723.4c42.2-42.2,68.3-100.5,68.3-165H554.5L719.4,723.4z"/>
				<path class="st12" d="M719.4,726.6c-0.8,0-1.7-0.3-2.3-1l-165-165c-0.9-0.9-1.2-2.4-0.7-3.6c0.5-1.2,1.7-2,3-2h233.3
					c1.8,0,3.3,1.5,3.3,3.3c0,63.2-24.6,122.6-69.3,167.3C721.1,726.3,720.3,726.6,719.4,726.6z M562.4,561.7l157,157
					c41.2-42.4,64.2-97.9,65-157H562.4z"/>
			</g>
		</g>
		<g>
			<g>
				<path class="st2" d="M617.7,885.8c0-17.7-12.7-32.3-29.5-35.5c14.3-9.3,20.4-27.7,13.7-44.1c-6.8-16.3-24.1-25-40.8-21.5
					c9.7-14.1,8.3-33.4-4.2-45.9c-12.5-12.5-31.9-13.9-45.9-4.2c3.5-16.7-5.1-34-21.5-40.8c-16.3-6.8-34.7-0.6-44,13.7
					c-3.1-16.8-17.8-29.5-35.5-29.5c-17.7,0-32.3,12.7-35.5,29.5c-9.3-14.3-27.7-20.4-44.1-13.7c-16.3,6.7-25,24.1-21.5,40.8
					c-14.1-9.7-33.4-8.3-45.9,4.2c-12.5,12.5-13.9,31.9-4.2,45.9c-16.7-3.5-34,5.1-40.8,21.5c-6.8,16.4-0.6,34.7,13.7,44.1
					c-16.8,3.1-29.5,17.8-29.5,35.5c0,17.7,12.7,32.3,29.5,35.5c-14.3,9.3-20.4,27.7-13.7,44c6.8,16.3,24.1,25,40.8,21.5
					c-9.6,14.1-8.3,33.4,4.2,45.9c12.5,12.5,31.9,13.9,45.9,4.2c-3.5,16.7,5.1,34,21.5,40.8c16.3,6.8,34.7,0.6,44-13.7
					c3.1,16.8,17.8,29.5,35.5,29.5c17.7,0,32.3-12.7,35.5-29.5c9.3,14.3,27.7,20.4,44.1,13.7c16.3-6.8,25-24.1,21.5-40.8
					c14.1,9.7,33.4,8.3,45.9-4.2c12.5-12.5,13.9-31.8,4.2-45.9c16.7,3.5,34.1-5.1,40.8-21.5c6.8-16.3,0.6-34.8-13.7-44
					C605,918.2,617.7,903.5,617.7,885.8z"/>
				<path class="st12" d="M409.9,1096.9c-16.7,0-31.2-10.4-36.9-25.6c-7.4,8-17.8,12.6-28.9,12.6c-5.2,0-10.2-1-15-3
					c-15.4-6.4-24.9-21.6-24.3-37.8c-5.1,2.3-10.7,3.6-16.4,3.6c-10.5,0-20.4-4.1-27.8-11.5c-11.8-11.8-14.7-29.5-7.9-44.2
					c-16.5,0.6-31.5-9.1-37.8-24.3c-6.4-15.4-2.3-32.9,9.6-43.9c-15.2-5.7-25.6-20.2-25.6-36.9c0-16.7,10.4-31.2,25.6-36.9
					c-11.9-11-15.9-28.5-9.6-43.9c6.3-15.2,21.2-24.9,37.8-24.3c-6.7-14.7-3.8-32.4,8-44.2c7.4-7.4,17.3-11.5,27.8-11.5
					c5.7,0,11.3,1.2,16.4,3.6c-0.6-16.2,8.9-31.4,24.3-37.8c4.8-2,9.9-3,15.1-3c11.1,0,21.5,4.6,28.8,12.6
					c5.6-15.2,20.2-25.6,36.9-25.6c16.6,0,31.2,10.5,36.9,25.6c7.4-8,17.8-12.6,28.8-12.6c5.2,0,10.2,1,15,3
					c15.4,6.4,24.9,21.6,24.3,37.8c5.1-2.3,10.7-3.6,16.4-3.6c10.5,0,20.4,4.1,27.8,11.5c11.8,11.8,14.7,29.5,8,44.2
					c16.5-0.6,31.5,9.1,37.8,24.3c6.4,15.4,2.3,32.9-9.6,43.9c15.2,5.6,25.6,20.2,25.6,36.9c0,16.7-10.4,31.2-25.6,36.9
					c11.9,11,15.9,28.5,9.6,43.9c-6.1,14.8-20.4,24.3-36.4,24.3h0c-0.5,0-0.9,0-1.4,0c6.8,14.7,3.8,32.4-8,44.2
					c-7.4,7.4-17.3,11.5-27.8,11.5c-5.7,0-11.3-1.2-16.4-3.6c0.6,16.2-8.9,31.4-24.3,37.8c-4.8,2-9.9,3-15,3
					c-11.1,0-21.5-4.6-28.9-12.6C441.2,1086.5,426.6,1096.9,409.9,1096.9z M374.5,1060.9c0.2,0,0.4,0,0.6,0.1
					c1.3,0.3,2.3,1.3,2.6,2.6c2.9,15.5,16.4,26.8,32.2,26.8s29.3-11.3,32.2-26.8c0.2-1.3,1.3-2.4,2.6-2.6c1.3-0.3,2.7,0.3,3.4,1.4
					c6.1,9.4,16.4,14.9,27.5,14.9c4.3,0,8.5-0.8,12.5-2.5c14.6-6,22.8-21.7,19.5-37.1c-0.3-1.3,0.3-2.7,1.4-3.4
					c1.1-0.7,2.6-0.7,3.7,0c5.5,3.8,11.9,5.8,18.6,5.8c8.7,0,17-3.4,23.2-9.6c11.2-11.2,12.8-28.7,3.8-41.7c-0.8-1.1-0.8-2.6,0-3.7
					c0.7-1.1,2.1-1.7,3.4-1.4c2.2,0.5,4.5,0.7,6.8,0.7c13.3,0,25.2-7.9,30.3-20.2c6.1-14.6,0.8-31.4-12.4-40
					c-1.1-0.7-1.7-2.1-1.4-3.4c0.3-1.3,1.3-2.3,2.6-2.6c15.5-2.9,26.8-16.4,26.8-32.2c0-15.8-11.3-29.3-26.8-32.2
					c-1.3-0.2-2.4-1.3-2.6-2.6c-0.3-1.3,0.3-2.7,1.4-3.4c13.2-8.6,18.5-25.5,12.4-40c-5.1-12.3-17-20.2-30.3-20.2
					c-2.3,0-4.6,0.2-6.8,0.7c-1.3,0.3-2.7-0.3-3.4-1.4c-0.7-1.1-0.7-2.6,0-3.7c9-13,7.3-30.6-3.8-41.8c-6.2-6.2-14.4-9.6-23.1-9.6
					c-6.7,0-13.1,2-18.6,5.8c-1.1,0.8-2.6,0.8-3.7,0c-1.1-0.7-1.7-2.1-1.4-3.4c3.3-15.4-4.9-31-19.5-37.1c-4-1.7-8.2-2.5-12.5-2.5
					c-11.1,0-21.4,5.6-27.5,14.9c-0.7,1.1-2.1,1.7-3.4,1.4c-1.3-0.3-2.3-1.3-2.6-2.6c-2.9-15.5-16.4-26.8-32.2-26.8
					c-15.8,0-29.3,11.3-32.2,26.8c-0.2,1.3-1.3,2.4-2.6,2.6c-1.3,0.3-2.7-0.3-3.4-1.4c-6.1-9.3-16.4-14.9-27.5-14.9
					c-4.3,0-8.5,0.8-12.5,2.5c-14.6,6-22.8,21.6-19.5,37.1c0.3,1.3-0.3,2.7-1.4,3.4c-1.1,0.7-2.6,0.7-3.7,0
					c-5.5-3.8-11.9-5.8-18.6-5.8c-8.7,0-17,3.4-23.2,9.6c-11.2,11.2-12.8,28.7-3.8,41.7c0.8,1.1,0.8,2.6,0,3.7
					c-0.7,1.1-2.1,1.7-3.4,1.4c-2.2-0.5-4.5-0.7-6.8-0.7c-13.3,0-25.2,7.9-30.3,20.2c-6,14.6-0.8,31.4,12.4,40
					c1.1,0.7,1.7,2.1,1.4,3.4c-0.3,1.3-1.3,2.3-2.6,2.6c-15.5,2.9-26.8,16.4-26.8,32.2c0,15.8,11.3,29.3,26.8,32.2
					c1.3,0.2,2.4,1.3,2.6,2.6s-0.3,2.7-1.4,3.4c-13.2,8.6-18.5,25.4-12.4,40c5.1,12.3,17,20.2,30.3,20.2c2.3,0,4.6-0.2,6.8-0.7
					c1.3-0.3,2.7,0.3,3.4,1.4c0.7,1.1,0.7,2.6,0,3.7c-8.9,13-7.3,30.6,3.8,41.8c6.2,6.2,14.4,9.6,23.2,9.6c6.7,0,13.1-2,18.6-5.8
					c1.1-0.8,2.6-0.8,3.7,0c1.1,0.7,1.7,2.1,1.4,3.4c-3.3,15.4,4.9,31.1,19.5,37.1c4,1.7,8.2,2.5,12.5,2.5
					c11.1,0,21.4-5.6,27.5-14.9C372.3,1061.4,373.4,1060.9,374.5,1060.9z"/>
			</g>
			<g>
				<path class="st9" d="M338.3,960.8c-0.8,0-1.7-0.3-2.3-1c-1.3-1.3-1.3-3.4,0-4.7l143.3-143.3c1.3-1.3,3.4-1.3,4.6,0
					c1.3,1.3,1.3,3.4,0,4.7L340.6,959.8C340,960.5,339.1,960.8,338.3,960.8z"/>
			</g>
			<g>
				<path class="st9" d="M359.8,867.6c-17.6,0-31.9-14.3-31.9-31.9c0-17.6,14.3-31.9,31.9-31.9c17.6,0,31.9,14.3,31.9,31.9
					C391.7,853.3,377.4,867.6,359.8,867.6z M359.8,810.3c-14,0-25.4,11.4-25.4,25.4c0,14,11.4,25.4,25.4,25.4
					c14,0,25.4-11.4,25.4-25.4C385.1,821.7,373.8,810.3,359.8,810.3z"/>
			</g>
			<g>
				<path class="st9" d="M460.1,967.9c-17.6,0-31.9-14.3-31.9-31.9c0-17.6,14.3-32,31.9-32c17.6,0,31.9,14.3,31.9,32
					C492,953.6,477.7,967.9,460.1,967.9z M460.1,910.6c-14,0-25.4,11.4-25.4,25.4c0,14,11.4,25.4,25.4,25.4s25.4-11.4,25.4-25.4
					C485.5,922,474.1,910.6,460.1,910.6z"/>
			</g>
		</g>
		<g>
			<g>
				<rect x="882.8" y="518.9" class="st2" width="470.4" height="149.7"/>
				<path class="st9" d="M1353.2,671.9H882.8c-1.8,0-3.3-1.5-3.3-3.3V518.9c0-1.8,1.5-3.3,3.3-3.3h470.4c1.8,0,3.3,1.5,3.3,3.3
					v149.7C1356.5,670.4,1355.1,671.9,1353.2,671.9z M886.1,665.3h463.9V522.2H886.1V665.3z"/>
			</g>
			<g>
				<path class="st12" d="M979,586.3c-1.8,0-3.3-1.5-3.3-3.3v-64.1c0-1.8,1.5-3.3,3.3-3.3s3.3,1.5,3.3,3.3V583
					C982.3,584.9,980.8,586.3,979,586.3z"/>
			</g>
			<g>
				<path class="st12" d="M1032.5,575.6c-1.8,0-3.3-1.5-3.3-3.3v-53.5c0-1.8,1.5-3.3,3.3-3.3c1.8,0,3.3,1.5,3.3,3.3v53.5
					C1035.8,574.2,1034.3,575.6,1032.5,575.6z"/>
			</g>
			<g>
				<path class="st12" d="M1091.3,591.7L1091.3,591.7c-1.8,0-3.3-1.5-3.3-3.3l0-69.5c0-1.8,1.5-3.3,3.3-3.3l0,0
					c1.8,0,3.3,1.5,3.3,3.3l0,69.5C1094.6,590.2,1093.1,591.7,1091.3,591.7z"/>
			</g>
			<g>
				<path class="st12" d="M1144.7,570.3c-1.8,0-3.3-1.5-3.3-3.3v-48.1c0-1.8,1.5-3.3,3.3-3.3s3.3,1.5,3.3,3.3V567
					C1148,568.8,1146.6,570.3,1144.7,570.3z"/>
			</g>
			<g>
				<path class="st12" d="M1203.6,586.3c-1.8,0-3.3-1.5-3.3-3.3v-64.1c0-1.8,1.5-3.3,3.3-3.3s3.3,1.5,3.3,3.3V583
					C1206.8,584.9,1205.4,586.3,1203.6,586.3z"/>
			</g>
			<g>
				<path class="st12" d="M1257,575.6c-1.8,0-3.3-1.5-3.3-3.3v-53.5c0-1.8,1.5-3.3,3.3-3.3s3.3,1.5,3.3,3.3v53.5
					C1260.3,574.2,1258.8,575.6,1257,575.6z"/>
			</g>
		</g>
		<g>
			<path class="st9" d="M1353.2,522.2H882.8c-1.8,0-3.3-1.5-3.3-3.3c0-1.8,1.5-3.3,3.3-3.3h470.4c1.8,0,3.3,1.5,3.3,3.3
				C1356.5,520.7,1355.1,522.2,1353.2,522.2z"/>
		</g>
	</g>
</g>
<g id="colors" class="st0">
</g>
</svg>
